<?xml version="1.0" encoding="utf-8"?>
<!-- Generator: Adobe Illustrator 16.0.0, SVG Export Plug-In . SVG Version: 6.00 Build 0)  -->
<!DOCTYPE svg PUBLIC "-//W3C//DTD SVG 1.1//EN" "http://www.w3.org/Graphics/SVG/1.1/DTD/svg11.dtd">
<svg version="1.1" id="Layer_1" xmlns="http://www.w3.org/2000/svg" xmlns:xlink="http://www.w3.org/1999/xlink" x="0px" y="0px"
	 width="160px" height="89px" viewBox="0 0 160 89" enable-background="new 0 0 160 89" xml:space="preserve">
<g>
	<path fill="#92BF20" d="M125.947,61.074c-10.006,11.699-22.951,21.129-37.414,23.625c-7.737,1.322-16.104,0.176-21.894-4.885
		c-5.251-4.436-7.468-11.6-7.258-18.74h-5.217c0.159,8.336,3.306,17.139,9.998,22.162c7.365,5.699,16.746,6.203,24.867,4.375
		c15.334-3.58,27.973-14.104,37.482-26.537H125.947z"/>
	<path fill="#007067" d="M19.817,46.348c-0.933,0.477-3.146,1.064-5.945,1.064c-8.053,0-12.2-5.361-12.2-12.448
		c0-8.443,5.668-13.107,12.718-13.107c2.73,0,4.805,0.588,5.737,1.103l-1.106,4.406c-1.037-0.477-2.523-0.918-4.424-0.918
		c-4.147,0-7.396,2.68-7.396,8.224c0,4.957,2.766,8.078,7.431,8.078c1.625,0,3.353-0.331,4.425-0.808L19.817,46.348z"/>
	<path fill="#007067" d="M36.864,42.675c0,1.688,0.068,3.34,0.275,4.334h-4.734l-0.311-1.802h-0.104
		c-1.105,1.433-2.833,2.204-4.838,2.204c-3.421,0-5.46-2.643-5.46-5.507c0-4.663,3.94-6.866,9.919-6.866v-0.221
		c0-0.954-0.483-2.312-3.076-2.312c-1.728,0-3.56,0.624-4.666,1.322L22.9,30.266c1.175-0.698,3.491-1.616,6.566-1.616
		c5.634,0,7.397,3.526,7.397,7.749V42.675z M31.782,38.526c-2.765,0-4.907,0.699-4.907,2.829c0,1.431,0.898,2.128,2.073,2.128
		c1.279,0,2.385-0.918,2.731-2.055c0.069-0.294,0.103-0.624,0.103-0.954V38.526z"/>
	<path fill="#007067" d="M41.08,34.965c0-2.643-0.034-4.368-0.139-5.911h4.493l0.208,3.34h0.138
		c0.864-2.643,2.903-3.745,4.562-3.745c0.483,0,0.725,0.038,1.105,0.111v5.25c-0.449-0.074-0.864-0.146-1.451-0.146
		c-1.936,0-3.25,1.064-3.595,2.826c-0.068,0.367-0.104,0.771-0.104,1.249v9.07h-5.252L41.08,34.965z"/>
	<path fill="#007067" d="M54.144,35.077c0-2.352-0.068-4.334-0.138-6.022h4.562l0.242,2.497h0.069
		c1.244-1.873,3.18-2.901,5.633-2.901c3.698,0,7.017,3.414,7.017,9.143c0,6.535-3.905,9.62-7.673,9.62
		c-2.04,0-3.629-0.881-4.389-2.057h-0.07v12.908h-5.254V35.077z M59.397,39.298c0,0.44,0.035,0.807,0.104,1.174
		c0.345,1.505,1.555,2.645,3.076,2.645c2.281,0,3.628-2.02,3.628-5.067c0-2.864-1.209-5.03-3.56-5.03
		c-1.485,0-2.799,1.174-3.144,2.827c-0.069,0.294-0.104,0.661-0.104,0.991V39.298z"/>
	<path fill="#007067" d="M84.281,34.78c0-2.239-0.068-4.111-0.139-5.726h4.459l0.207,2.459h0.104
		c0.727-1.174,2.246-2.864,5.115-2.864c2.213,0,3.906,1.211,4.631,3.085h0.07c0.656-0.955,1.381-1.689,2.209-2.203
		c0.936-0.552,1.973-0.882,3.215-0.882c3.25,0,5.705,2.423,5.705,7.784v10.574h-5.117v-9.729c0-2.608-0.795-4.112-2.486-4.112
		c-1.246,0-2.074,0.88-2.455,1.944c-0.104,0.405-0.172,0.956-0.172,1.396v10.501H94.51V36.947c0-2.238-0.76-3.78-2.451-3.78
		c-1.35,0-2.146,1.101-2.455,1.981c-0.174,0.442-0.207,0.956-0.207,1.433v10.427h-5.115V34.78z"/>
	<path fill="#007067" d="M119.256,36.654h0.07c0.379-0.771,0.795-1.507,1.209-2.167l3.422-5.434h6.326l-6.051,7.27l6.914,10.684
		h-6.463l-4.113-7.379l-1.314,1.799v5.581h-5.252V20.94h5.252V36.654z"/>
	<rect x="74.812" y="29.054" fill="#007067" width="5.254" height="17.954"/>
	<path fill="#007067" d="M140.031,47.412c-4.941,0-8.744-3.452-8.744-9.253c0-5.8,3.594-9.509,9.055-9.509
		c5.15,0,8.605,3.782,8.605,9.217c0,6.535-4.387,9.546-8.881,9.546H140.031z M140.135,43.411c2.074,0,3.352-2.167,3.352-5.399
		c0-2.644-0.967-5.36-3.352-5.36c-2.488,0-3.455,2.716-3.455,5.397c0,3.047,1.209,5.361,3.422,5.361H140.135z"/>
	<polygon fill="#73797D" points="9.305,51.525 10.438,51.525 10.438,57.119 12.995,57.119 12.995,58.129 9.305,58.129 	"/>
	<path fill="#73797D" d="M17.292,56.982c0,0.432,0.019,0.854,0.065,1.146h-1.023L16.259,57.6h-0.028
		c-0.276,0.373-0.747,0.637-1.328,0.637c-0.904,0-1.412-0.695-1.412-1.42c0-1.205,1.005-1.812,2.667-1.803v-0.078
		c0-0.312-0.12-0.832-0.914-0.832c-0.442,0-0.903,0.146-1.208,0.352l-0.222-0.783c0.333-0.215,0.915-0.422,1.624-0.422
		c1.439,0,1.854,0.971,1.854,2.01V56.982z M16.185,55.797c-0.801-0.02-1.568,0.166-1.568,0.893c0,0.471,0.286,0.686,0.645,0.686
		c0.452,0,0.785-0.312,0.886-0.656c0.028-0.088,0.037-0.186,0.037-0.266V55.797z"/>
	<path fill="#73797D" d="M20.446,51.613c0.424-0.078,1.061-0.137,1.715-0.137c0.895,0,1.504,0.156,1.919,0.529
		c0.341,0.303,0.535,0.764,0.535,1.322c0,0.852-0.544,1.43-1.125,1.656v0.029c0.443,0.178,0.71,0.639,0.866,1.273
		c0.194,0.822,0.36,1.588,0.49,1.842h-1.172c-0.092-0.186-0.239-0.734-0.416-1.559c-0.184-0.861-0.469-1.154-1.115-1.154h-0.573
		v2.713h-1.125V51.613z M21.571,54.533h0.673c0.766,0,1.246-0.43,1.246-1.088c0-0.725-0.48-1.059-1.217-1.059
		c-0.36,0-0.591,0.031-0.702,0.059V54.533z"/>
	<path fill="#73797D" d="M26.451,56.072c0.027,0.863,0.664,1.244,1.384,1.244c0.525,0,0.904-0.09,1.245-0.227l0.167,0.834
		c-0.389,0.168-0.923,0.305-1.569,0.305c-1.458,0-2.315-0.963-2.315-2.422c0-1.322,0.756-2.566,2.196-2.566
		c1.466,0,1.937,1.273,1.937,2.322c0,0.225-0.02,0.402-0.038,0.52L26.451,56.072z M28.425,55.229
		c0.009-0.441-0.176-1.166-0.932-1.166c-0.701,0-0.996,0.678-1.042,1.166H28.425z"/>
	<path fill="#73797D" d="M31.708,52.133v1.225h1.079v0.9h-1.079v2.107c0,0.578,0.147,0.883,0.581,0.883
		c0.212,0,0.313-0.02,0.442-0.059l0.019,0.92c-0.166,0.068-0.461,0.127-0.821,0.127c-0.415,0-0.765-0.154-0.977-0.4
		c-0.24-0.273-0.351-0.705-0.351-1.334v-2.244h-0.646v-0.9h0.646v-0.881L31.708,52.133z"/>
	<path fill="#73797D" d="M33.654,54.896c0-0.648-0.009-1.109-0.037-1.539h0.987l0.037,0.912h0.037
		c0.222-0.678,0.748-1.02,1.227-1.02c0.11,0,0.175,0.01,0.268,0.029v1.135c-0.101-0.018-0.203-0.039-0.341-0.039
		c-0.544,0-0.913,0.375-1.015,0.912c-0.027,0.109-0.037,0.236-0.037,0.373v2.469h-1.134L33.654,54.896z"/>
	<path fill="#73797D" d="M40.415,56.982c0,0.432,0.019,0.854,0.065,1.146h-1.023L39.381,57.6h-0.027
		c-0.276,0.373-0.747,0.637-1.328,0.637c-0.904,0-1.411-0.695-1.411-1.42c0-1.205,1.005-1.812,2.665-1.803v-0.078
		c0-0.312-0.119-0.832-0.913-0.832c-0.443,0-0.904,0.146-1.208,0.352l-0.222-0.783c0.332-0.215,0.914-0.422,1.624-0.422
		c1.439,0,1.854,0.971,1.854,2.01V56.982z M39.309,55.797c-0.803-0.02-1.568,0.166-1.568,0.893c0,0.471,0.286,0.686,0.646,0.686
		c0.452,0,0.783-0.312,0.885-0.656c0.028-0.088,0.038-0.186,0.038-0.266V55.797z"/>
	<path fill="#73797D" d="M42.177,52.623c-0.398,0-0.665-0.305-0.665-0.688c0-0.391,0.277-0.684,0.673-0.684
		c0.406,0,0.664,0.293,0.664,0.684c0.011,0.383-0.258,0.688-0.664,0.688H42.177z M41.614,53.357h1.145v4.771h-1.145V53.357z"/>
	<path fill="#73797D" d="M45.276,52.133v1.225h1.079v0.9h-1.079v2.107c0,0.578,0.147,0.883,0.581,0.883
		c0.213,0,0.313-0.02,0.443-0.059l0.019,0.92c-0.166,0.068-0.461,0.127-0.821,0.127c-0.415,0-0.765-0.154-0.978-0.4
		c-0.239-0.273-0.351-0.705-0.351-1.334v-2.244h-0.645v-0.9h0.645v-0.881L45.276,52.133z"/>
	<path fill="#73797D" d="M48.016,56.072c0.027,0.863,0.663,1.244,1.383,1.244c0.526,0,0.904-0.09,1.245-0.227l0.166,0.834
		c-0.387,0.168-0.922,0.305-1.567,0.305c-1.458,0-2.315-0.963-2.315-2.422c0-1.322,0.756-2.566,2.195-2.566
		c1.466,0,1.937,1.273,1.937,2.322c0,0.225-0.019,0.402-0.037,0.52L48.016,56.072z M49.99,55.229
		c0.008-0.441-0.176-1.166-0.932-1.166c-0.701,0-0.996,0.678-1.042,1.166H49.99z"/>
	<path fill="#73797D" d="M66.613,51.172v5.615c0,0.49,0.019,1.02,0.037,1.342h-1.015l-0.045-0.754h-0.019
		c-0.268,0.529-0.812,0.861-1.466,0.861c-1.07,0-1.91-0.971-1.919-2.439c0-1.596,0.933-2.547,2.012-2.547
		c0.618,0,1.061,0.273,1.263,0.627h0.019v-2.705H66.613z M65.479,55.348c0-0.098-0.009-0.217-0.027-0.314
		c-0.102-0.471-0.462-0.854-0.978-0.854c-0.729,0-1.135,0.688-1.135,1.578c0,0.873,0.406,1.508,1.125,1.508
		c0.461,0,0.867-0.33,0.978-0.85c0.028-0.109,0.037-0.227,0.037-0.354V55.348z"/>
	<path fill="#73797D" d="M68.633,56.072c0.028,0.863,0.665,1.244,1.383,1.244c0.527,0,0.904-0.09,1.246-0.227l0.166,0.834
		c-0.387,0.168-0.922,0.305-1.568,0.305c-1.457,0-2.314-0.963-2.314-2.422c0-1.322,0.755-2.566,2.195-2.566
		c1.466,0,1.937,1.273,1.937,2.322c0,0.225-0.018,0.402-0.037,0.52L68.633,56.072z M70.607,55.229
		c0.009-0.441-0.175-1.166-0.932-1.166c-0.701,0-0.996,0.678-1.042,1.166H70.607z"/>
	<path fill="#73797D" d="M72.534,57.023c0.258,0.166,0.748,0.342,1.153,0.342c0.498,0,0.719-0.215,0.719-0.529
		c0-0.322-0.184-0.49-0.737-0.695c-0.877-0.324-1.246-0.832-1.237-1.391c0-0.844,0.656-1.5,1.698-1.5
		c0.498,0,0.932,0.137,1.19,0.283l-0.221,0.852c-0.194-0.115-0.554-0.273-0.951-0.273c-0.406,0-0.627,0.207-0.627,0.502
		c0,0.303,0.213,0.449,0.785,0.664c0.812,0.314,1.199,0.756,1.199,1.459c0,0.863-0.636,1.5-1.826,1.5
		c-0.544,0-1.033-0.146-1.366-0.342L72.534,57.023z"/>
	<path fill="#73797D" d="M79.636,56.258l-0.534,1.871H77.93l1.993-6.602h1.448l2.02,6.602h-1.217l-0.564-1.871H79.636z
		 M81.416,55.348l-0.489-1.627c-0.12-0.4-0.221-0.854-0.314-1.236h-0.018c-0.092,0.383-0.184,0.844-0.294,1.236l-0.48,1.627H81.416z
		"/>
	<path fill="#73797D" d="M88.232,56.699c0,0.566,0.02,1.037,0.037,1.43h-0.996l-0.055-0.725h-0.018
		c-0.193,0.342-0.639,0.832-1.439,0.832c-0.822,0-1.568-0.518-1.568-2.076v-2.803h1.135v2.598c0,0.793,0.238,1.303,0.84,1.303
		c0.451,0,0.746-0.344,0.865-0.648c0.039-0.107,0.064-0.234,0.064-0.371v-2.881h1.135V56.699z"/>
	<path fill="#73797D" d="M90.217,53.357l0.533,0.9c0.148,0.256,0.277,0.492,0.408,0.736h0.027c0.129-0.264,0.248-0.51,0.387-0.756
		l0.498-0.881h1.236l-1.506,2.285l1.533,2.486h-1.283l-0.553-0.949c-0.139-0.256-0.277-0.51-0.408-0.775h-0.018
		c-0.129,0.275-0.258,0.51-0.404,0.775l-0.516,0.949h-1.256l1.559-2.43l-1.504-2.342H90.217z"/>
	<path fill="#73797D" d="M94.578,52.623c-0.396,0-0.664-0.305-0.664-0.688c0-0.391,0.275-0.684,0.674-0.684
		c0.406,0,0.664,0.293,0.664,0.684c0.01,0.383-0.258,0.688-0.664,0.688H94.578z M94.016,53.357h1.145v4.771h-1.145V53.357z"/>
	<rect x="96.377" y="51.172" fill="#73797D" width="1.143" height="6.957"/>
	<path fill="#73797D" d="M99.303,52.623c-0.398,0-0.666-0.305-0.666-0.688c0-0.391,0.277-0.684,0.674-0.684
		c0.404,0,0.664,0.293,0.664,0.684c0.008,0.383-0.26,0.688-0.664,0.688H99.303z M98.738,53.357h1.145v4.771h-1.145V53.357z"/>
	<path fill="#73797D" d="M104.586,56.982c0,0.432,0.018,0.854,0.064,1.146h-1.023l-0.074-0.529h-0.027
		c-0.277,0.373-0.746,0.637-1.328,0.637c-0.904,0-1.412-0.695-1.412-1.42c0-1.205,1.006-1.812,2.666-1.803v-0.078
		c0-0.312-0.121-0.832-0.912-0.832c-0.443,0-0.904,0.146-1.209,0.352l-0.221-0.783c0.332-0.215,0.914-0.422,1.623-0.422
		c1.438,0,1.854,0.971,1.854,2.01V56.982z M103.479,55.797c-0.803-0.02-1.568,0.166-1.568,0.893c0,0.471,0.287,0.686,0.646,0.686
		c0.451,0,0.783-0.312,0.887-0.656c0.025-0.088,0.035-0.186,0.035-0.266V55.797z"/>
	<path fill="#73797D" d="M106.348,52.623c-0.396,0-0.664-0.305-0.664-0.688c0-0.391,0.275-0.684,0.674-0.684
		c0.404,0,0.664,0.293,0.664,0.684c0.01,0.383-0.26,0.688-0.664,0.688H106.348z M105.785,53.357h1.143v4.771h-1.143V53.357z"/>
	<path fill="#73797D" d="M108.156,54.896c0-0.648-0.01-1.109-0.039-1.539h0.99l0.035,0.912h0.037c0.221-0.678,0.746-1.02,1.227-1.02
		c0.111,0,0.176,0.01,0.268,0.029v1.135c-0.102-0.018-0.203-0.039-0.342-0.039c-0.545,0-0.912,0.375-1.014,0.912
		c-0.029,0.109-0.039,0.236-0.039,0.373v2.469h-1.133L108.156,54.896z"/>
	<path fill="#73797D" d="M112.232,56.072c0.027,0.863,0.664,1.244,1.383,1.244c0.527,0,0.904-0.09,1.246-0.227l0.166,0.834
		c-0.387,0.168-0.922,0.305-1.568,0.305c-1.457,0-2.314-0.963-2.314-2.422c0-1.322,0.756-2.566,2.195-2.566
		c1.465,0,1.936,1.273,1.936,2.322c0,0.225-0.018,0.402-0.037,0.52L112.232,56.072z M114.207,55.229
		c0.008-0.441-0.176-1.166-0.934-1.166c-0.699,0-0.996,0.678-1.041,1.166H114.207z"/>
	<path fill="#73797D" d="M116.135,57.023c0.258,0.166,0.746,0.342,1.152,0.342c0.498,0,0.719-0.215,0.719-0.529
		c0-0.322-0.184-0.49-0.738-0.695c-0.875-0.324-1.246-0.832-1.236-1.391c0-0.844,0.656-1.5,1.697-1.5c0.5,0,0.934,0.137,1.189,0.283
		l-0.221,0.852c-0.193-0.115-0.553-0.273-0.949-0.273c-0.404,0-0.627,0.207-0.627,0.502c0,0.303,0.211,0.449,0.783,0.664
		c0.812,0.314,1.199,0.756,1.199,1.459c0,0.863-0.637,1.5-1.826,1.5c-0.545,0-1.033-0.146-1.365-0.342L116.135,57.023z"/>
	<path fill="#73797D" d="M127.238,55.436c-0.037-0.854-0.082-1.881-0.074-2.773h-0.025c-0.205,0.803-0.471,1.695-0.74,2.529
		l-0.902,2.859h-0.877l-0.83-2.822c-0.238-0.842-0.461-1.744-0.627-2.566h-0.018c-0.029,0.861-0.066,1.91-0.111,2.812l-0.137,2.654
		h-1.062l0.416-6.604h1.494l0.811,2.654c0.23,0.775,0.416,1.559,0.57,2.295h0.029c0.166-0.717,0.367-1.529,0.617-2.305l0.859-2.645
		h1.477l0.357,6.604h-1.105L127.238,55.436z"/>
	<path fill="#73797D" d="M130.375,56.072c0.027,0.863,0.664,1.244,1.383,1.244c0.527,0,0.904-0.09,1.246-0.227l0.164,0.834
		c-0.387,0.166-0.92,0.305-1.566,0.305c-1.457,0-2.314-0.963-2.314-2.422c0-1.322,0.756-2.566,2.195-2.566
		c1.467,0,1.936,1.273,1.936,2.322c0,0.225-0.018,0.4-0.035,0.52L130.375,56.072z M132.348,55.229
		c0.012-0.441-0.174-1.166-0.932-1.166c-0.701,0-0.994,0.678-1.041,1.166H132.348z M132.865,51.33l-1.127,1.449h-0.781l0.801-1.449
		H132.865z"/>
	<path fill="#73797D" d="M138.473,51.172v5.615c0,0.49,0.02,1.02,0.037,1.342h-1.014l-0.047-0.754h-0.02
		c-0.266,0.529-0.811,0.861-1.465,0.861c-1.07,0-1.908-0.971-1.92-2.439c0-1.596,0.932-2.547,2.012-2.547
		c0.617,0,1.061,0.273,1.264,0.627h0.02v-2.705H138.473z M137.34,55.348c0-0.098-0.01-0.217-0.029-0.314
		c-0.102-0.471-0.461-0.854-0.977-0.854c-0.729,0-1.135,0.688-1.135,1.578c0,0.873,0.406,1.508,1.125,1.508
		c0.459,0,0.867-0.33,0.977-0.85c0.029-0.109,0.039-0.227,0.039-0.354V55.348z"/>
	<path fill="#73797D" d="M140.252,52.623c-0.395,0-0.662-0.305-0.662-0.688c0-0.391,0.273-0.684,0.672-0.684
		c0.406,0,0.664,0.293,0.664,0.684c0.01,0.383-0.258,0.688-0.664,0.688H140.252z M139.689,53.357h1.145v4.771h-1.145V53.357z"/>
	<path fill="#73797D" d="M145.354,57.982c-0.238,0.117-0.711,0.254-1.271,0.254c-1.402,0-2.316-0.961-2.316-2.439
		c0-1.432,0.924-2.547,2.5-2.547c0.414,0,0.84,0.098,1.098,0.225l-0.203,0.9c-0.184-0.086-0.451-0.184-0.857-0.184
		c-0.867,0-1.375,0.676-1.375,1.547c0,0.98,0.6,1.537,1.375,1.537c0.396,0,0.674-0.086,0.895-0.186L145.354,57.982z"/>
	<path fill="#73797D" d="M149.68,56.982c0,0.432,0.018,0.854,0.064,1.146h-1.025l-0.072-0.529h-0.027
		c-0.277,0.373-0.748,0.637-1.328,0.637c-0.904,0-1.412-0.695-1.412-1.42c0-1.205,1.006-1.812,2.666-1.803v-0.078
		c0-0.312-0.119-0.832-0.912-0.832c-0.441,0-0.904,0.146-1.209,0.352l-0.223-0.783c0.332-0.215,0.914-0.422,1.625-0.422
		c1.439,0,1.854,0.971,1.854,2.01V56.982z M148.572,55.797c-0.803-0.02-1.568,0.166-1.568,0.893c0,0.471,0.287,0.686,0.646,0.686
		c0.453,0,0.783-0.312,0.885-0.656c0.027-0.088,0.037-0.186,0.037-0.266V55.797z"/>
	<path fill="#73797D" d="M154.9,56.699c0,0.566,0.018,1.037,0.037,1.43h-0.996l-0.057-0.725h-0.018
		c-0.193,0.342-0.635,0.832-1.439,0.832c-0.82,0-1.568-0.518-1.568-2.076v-2.803h1.135v2.598c0,0.793,0.24,1.303,0.84,1.303
		c0.451,0,0.748-0.344,0.867-0.648c0.037-0.107,0.066-0.234,0.066-0.371v-2.881h1.133V56.699z"/>
	<path fill="#73797D" d="M156.881,53.357l0.537,0.9c0.148,0.256,0.277,0.492,0.404,0.736h0.029c0.129-0.264,0.25-0.51,0.387-0.756
		l0.5-0.881h1.234l-1.504,2.285L160,58.129h-1.281l-0.555-0.949c-0.137-0.256-0.275-0.51-0.404-0.775h-0.02
		c-0.129,0.275-0.258,0.51-0.404,0.775l-0.518,0.949h-1.254l1.561-2.43l-1.506-2.342H156.881z"/>
	<path fill="#FFFFFF" d="M74.5,23.656c0-1.688,1.175-2.975,2.973-2.975c1.797,0,2.904,1.286,2.938,2.975
		c0,1.652-1.142,2.975-2.973,2.975h-0.034C75.641,26.63,74.5,25.308,74.5,23.656"/>
	<path fill="#92BF20" d="M74.5,23.731c0-1.689,1.175-2.975,2.973-2.975c1.797,0,2.904,1.285,2.938,2.975
		c0,1.651-1.142,2.973-2.973,2.973h-0.034C75.641,26.704,74.5,25.382,74.5,23.731"/>
	<path fill="#92BF20" d="M141.295,26.163c0.172,0.014,0.344,0.031,0.512,0.052c-0.086-6.09-1.754-12.293-5.732-17.039
		c-4.893-5.953-12.533-8.664-19.82-8.731c-14.826-0.003-28.637,7.586-39.557,17.771c0.254-0.036,0.512-0.059,0.777-0.059
		c1.481,0,2.833,0.562,3.804,1.585c0.332,0.35,0.609,0.749,0.836,1.18c9.305-9.326,21.258-16.527,34.176-17.374
		c6.719-0.377,13.781,1.599,18.631,6.778C138.846,14.426,140.84,20.217,141.295,26.163"/>
</g>
</svg>
