<?xml version="1.0" encoding="UTF-8"?>
<svg width="103px" height="27px" viewBox="0 0 103 27" version="1.1" xmlns="http://www.w3.org/2000/svg" xmlns:xlink="http://www.w3.org/1999/xlink">
    <title>logo-probtp</title>
    <defs>
        <polygon id="path-1" points="0 0 49.629881 0 49.629881 25.7930476 0 25.7930476"></polygon>
    </defs>
    <g id="Headers-🛠" stroke="none" stroke-width="1" fill="none" fill-rule="evenodd">
        <g id="Header/Desktop/Comet/Header-1200-maximum-Copy" transform="translate(-29.000000, -15.000000)">
            <g id="logo-probtp" transform="translate(29.428571, 15.397619)">
                <g id="Group-16" transform="translate(-0.000000, 0.000000)">
                    <path d="M34.3788571,4.99265714 C34.3788571,3.52337143 33.4681429,2.9445619 31.7300952,2.9445619 C31.4410952,2.9445619 30.3029048,2.98584762 30.054381,3.00608571 L30.054381,7.22694286 C30.2818571,7.24799048 31.502619,7.2690381 31.7300952,7.2690381 C33.5717619,7.2690381 34.3788571,6.5858 34.3788571,5.17884762 L34.3788571,4.99265714 Z M26.8778095,0.000323809524 L31.6888095,0.00599047619 C34.8135714,0.00599047619 37.8962381,1.10289524 37.8962381,4.99265714 L37.8962381,5.17884762 C37.8962381,9.04837143 34.8135714,10.1857524 31.7300952,10.1857524 C31.2338571,10.1857524 30.5716667,10.1444667 30.054381,10.1242286 L30.054381,15.152181 C30.054381,15.3796571 29.8681905,15.5658476 29.6407143,15.5658476 L26.9717143,15.5658476 C26.7442381,15.5658476 26.5572381,15.3998952 26.5572381,15.172419 L26.5572381,1.2680381 L26.5572381,0.308752381 C26.5572381,0.308752381 26.5572381,0.000323809524 26.8778095,0.000323809524 L26.8778095,0.000323809524 Z" id="Fill-1" fill="#00314C"></path>
                    <path d="M46.4212524,4.84775238 C46.4212524,3.58570476 45.4490143,3.00608571 43.7109667,3.00608571 C43.4211571,3.00608571 42.3453,3.04737143 42.0967762,3.06841905 L42.0967762,7.04075238 C42.3242524,7.0618 43.3385857,7.0820381 43.5660619,7.0820381 C45.7380143,7.0820381 46.4212524,6.52346667 46.4212524,5.11651429 L46.4212524,4.84775238 Z M50.1458714,15.5658476 L46.9798238,15.5658476 C46.7523476,15.5658476 46.6697762,15.3586095 46.5661571,15.152181 L43.7935381,9.91699048 L43.5660619,9.9380381 C43.1313476,9.9380381 42.4902048,9.89594286 42.0967762,9.89594286 L42.0967762,15.152181 C42.0967762,15.3796571 41.9105857,15.5658476 41.6831095,15.5658476 L38.9930619,15.5658476 C38.7655857,15.5658476 38.5793952,15.3796571 38.5793952,15.152181 L38.5793952,1.2680381 C38.5793952,0.564561905 38.8692048,0.378371429 39.5103476,0.274752381 C40.4623476,0.129847619 42.2206333,0.00599047619 43.7109667,0.00599047619 C47.2283476,0.00599047619 49.9386333,1.18546667 49.9386333,4.84775238 L49.9386333,5.11651429 C49.9386333,7.31032381 48.7802048,8.65494286 47.2696333,9.2548 L50.3935857,15.0898476 C50.4348714,15.172419 50.455919,15.2549905 50.455919,15.3173238 C50.455919,15.4622286 50.3733476,15.5658476 50.1458714,15.5658476 L50.1458714,15.5658476 Z" id="Fill-3" fill="#00314C"></path>
                    <path d="M59.1052762,6.64789048 C59.1052762,4.16508095 58.2779429,3.1094619 56.5398952,3.1094619 C54.8018476,3.1094619 53.9947524,4.16508095 53.9947524,6.64789048 L53.9947524,9.1104619 C53.9947524,11.5932714 54.8018476,12.648081 56.5398952,12.648081 C58.2779429,12.648081 59.1052762,11.5932714 59.1052762,9.1104619 L59.1052762,6.64789048 Z M56.5398952,15.7517952 C53.1253238,15.7517952 50.4150381,13.9101286 50.4150381,9.1104619 L50.4150381,6.64789048 C50.4150381,1.84741429 53.1253238,0.00574761905 56.5398952,0.00574761905 C59.9536571,0.00574761905 62.6639429,1.84741429 62.6639429,6.64789048 L62.6639429,9.1104619 C62.6639429,13.9101286 59.9536571,15.7517952 56.5398952,15.7517952 L56.5398952,15.7517952 Z" id="Fill-5" fill="#00314C"></path>
                    <path d="M75.2727619,10.806819 C75.2727619,9.81353333 74.7344286,8.96515238 73.0797619,8.96515238 L70.7620952,8.96515238 L70.7620952,12.8346762 C71.0931905,12.8346762 72.1690476,12.8549143 72.4588571,12.8549143 C74.5903333,12.8549143 75.2727619,12.1927238 75.2727619,11.0342952 L75.2727619,10.806819 Z M75.1901905,4.55810476 C75.1901905,3.41991429 74.4656667,2.90262857 72.3341905,2.90262857 C72.0039048,2.90262857 71.0519048,2.90262857 70.7620952,2.92367619 L70.7620952,6.50339048 L73.0797619,6.50339048 C74.7141905,6.50339048 75.1901905,5.75781905 75.1901905,4.86815238 L75.1901905,4.55810476 Z M72.1900952,15.7522 C70.8244286,15.7522 69.2102381,15.648581 68.4031429,15.5036762 C67.5758095,15.3587714 67.2657619,15.0900095 67.2657619,14.1590571 L67.2657619,1.57824762 C67.2657619,0.647295238 67.5547619,0.357485714 68.3618571,0.233628571 C69.0653333,0.130009524 70.7410476,0.00615238095 72.0654286,0.00615238095 C75.9762381,0.00615238095 78.6039524,1.04072381 78.6039524,4.33062857 L78.6039524,4.70300952 C78.6039524,6.04762857 77.9628095,7.20686667 76.8659048,7.74439048 C77.9628095,8.28272381 78.7075714,9.37881905 78.7075714,10.806819 L78.7075714,11.1168667 C78.7075714,14.7589143 75.769,15.7522 72.1900952,15.7522 L72.1900952,15.7522 Z" id="Fill-7" fill="#00314C"></path>
                    <path d="M89.5636095,3.10970476 L86.2113714,3.10970476 L86.2113714,15.152181 C86.2113714,15.3796571 86.025181,15.5658476 85.7977048,15.5658476 L83.087419,15.5658476 C82.8599429,15.5658476 82.6737524,15.3796571 82.6737524,15.152181 L82.6737524,3.10970476 L79.3004667,3.10970476 C79.0729905,3.10970476 78.8868,2.9445619 78.8868,2.71627619 L78.8868,0.585609524 C78.8868,0.358133333 79.0729905,0.192180952 79.3004667,0.192180952 L89.5636095,0.192180952 C89.7910857,0.192180952 89.9983238,0.358133333 89.9983238,0.585609524 L89.9983238,2.71627619 C89.9983238,2.9445619 89.7910857,3.10970476 89.5636095,3.10970476" id="Fill-9" fill="#00314C"></path>
                    <path d="M98.3368238,4.99265714 C98.3368238,3.52337143 97.4261095,2.9445619 95.6880619,2.9445619 C95.3982524,2.9445619 94.2608714,2.98584762 94.0123476,3.00608571 L94.0123476,7.22694286 C94.2398238,7.24799048 95.4605857,7.2690381 95.6880619,7.2690381 C97.5297286,7.2690381 98.3368238,6.5858 98.3368238,5.17884762 L98.3368238,4.99265714 Z M95.6880619,10.1857524 C95.1918238,10.1857524 94.5296333,10.1444667 94.0123476,10.1242286 L94.0123476,15.152181 C94.0123476,15.3796571 93.8261571,15.5658476 93.598681,15.5658476 L90.929681,15.5658476 C90.7013952,15.5658476 90.5160143,15.3998952 90.5160143,15.172419 L90.5160143,1.2680381 C90.5160143,0.564561905 90.8050143,0.378371429 91.4469667,0.274752381 C92.5017762,0.109609524 94.1572524,0.00599047619 95.6467762,0.00599047619 C98.7715381,0.00599047619 101.854205,1.10289524 101.854205,4.99265714 L101.854205,5.17884762 C101.854205,9.04837143 98.7715381,10.1857524 95.6880619,10.1857524 L95.6880619,10.1857524 Z" id="Fill-11" fill="#00314C"></path>
                    <g id="Group-15">
                        <mask id="mask-2" fill="white">
                            <use xlink:href="#path-1"></use>
                        </mask>
                        <g id="Clip-14"></g>
                        <path d="M17.8455476,-0.000161904762 L23.9177857,-0.000161904762 L6.35192857,17.5656952 C6.26611905,17.6506952 6.26611905,17.7907429 6.35192857,17.8765524 L12.9616905,24.4863143 C13.0466905,24.5713143 13.1867381,24.5713143 13.2725476,24.4863143 L13.4579286,24.3066 L19.8377857,17.9267429 C20.4886429,17.2758857 21.5539762,17.2758857 22.2048333,17.9267429 L28.7457857,24.4676952 L28.7644048,24.4863143 C28.8502143,24.5713143 28.9902619,24.5713143 29.0752619,24.4863143 L29.1222143,24.440981 L29.2565952,24.3066 L35.6364524,17.9267429 C36.2873095,17.2758857 37.3518333,17.2758857 38.0026905,17.9267429 L44.5444524,24.4676952 L44.5630714,24.4863143 C44.648881,24.5713143 44.788119,24.5713143 44.8739286,24.4863143 L44.920881,24.440981 L45.0512143,24.3066 L49.629881,19.7279333 L49.629881,21.448981 L45.6753571,25.4035048 C45.2276905,25.8511714 44.5104524,25.7904571 44.5104524,25.7904571 L44.0433571,25.7904571 L39.6136429,25.7904571 C39.1214524,25.7904571 38.7029286,25.4051238 38.7029286,25.4051238 L34.4464524,21.1486476 C34.3606429,21.0628381 34.2205952,21.0628381 34.1355952,21.1486476 L29.8799286,25.4035048 C29.4330714,25.8511714 28.7150238,25.7904571 28.7150238,25.7904571 L28.3976905,25.7904571 L23.8157857,25.7904571 C23.3227857,25.7904571 22.9042619,25.4051238 22.9042619,25.4051238 L18.6477857,21.1486476 C18.5619762,21.0628381 18.4227381,21.0628381 18.3369286,21.1486476 L14.0820714,25.4035048 C13.6344048,25.8511714 12.9163571,25.7904571 12.9163571,25.7904571 L7.98716667,25.7904571 C7.53140476,25.7904571 7.21083333,25.4172667 7.21083333,25.4172667 L0.2635,18.4699333 C-0.0878333333,18.1186 -0.0878333333,17.5430286 0.2635,17.1908857 L17.2635,0.191695238 C17.2635,0.191695238 17.5136429,-0.000161904762 17.8455476,-0.000161904762" id="Fill-13" fill="#00314C" mask="url(#mask-2)"></path>
                    </g>
                </g>
            </g>
        </g>
    </g>
</svg>