<?xml version="1.0" encoding="UTF-8"?>
<svg xmlns="http://www.w3.org/2000/svg" xmlns:xlink="http://www.w3.org/1999/xlink" version="1.1" viewBox="0 0 508.8 230.6">
  <defs>
    <style>
      .cls-1 {
        fill: #1cafe4;
      }

      .cls-1, .cls-2, .cls-3, .cls-4, .cls-5, .cls-6, .cls-7, .cls-8, .cls-9, .cls-10, .cls-11, .cls-12 {
        stroke-width: 0px;
      }

      .cls-13 {
        clip-path: url(#clippath);
      }

      .cls-2 {
        fill: none;
      }

      .cls-3 {
        fill: url(#linear-gradient);
      }

      .cls-4 {
        fill: #147090;
      }

      .cls-14 {
        clip-path: url(#clippath-1);
      }

      .cls-15 {
        clip-path: url(#clippath-4);
      }

      .cls-16 {
        clip-path: url(#clippath-3);
      }

      .cls-17 {
        clip-path: url(#clippath-2);
      }

      .cls-18 {
        clip-path: url(#clippath-7);
      }

      .cls-19 {
        clip-path: url(#clippath-8);
      }

      .cls-20 {
        clip-path: url(#clippath-6);
      }

      .cls-21 {
        clip-path: url(#clippath-5);
      }

      .cls-22 {
        clip-path: url(#clippath-9);
      }

      .cls-23 {
        clip-path: url(#clippath-20);
      }

      .cls-24 {
        clip-path: url(#clippath-21);
      }

      .cls-25 {
        clip-path: url(#clippath-24);
      }

      .cls-26 {
        clip-path: url(#clippath-23);
      }

      .cls-27 {
        clip-path: url(#clippath-22);
      }

      .cls-28 {
        clip-path: url(#clippath-25);
      }

      .cls-29 {
        clip-path: url(#clippath-40);
      }

      .cls-30 {
        clip-path: url(#clippath-42);
      }

      .cls-31 {
        clip-path: url(#clippath-41);
      }

      .cls-32 {
        clip-path: url(#clippath-27);
      }

      .cls-33 {
        clip-path: url(#clippath-28);
      }

      .cls-34 {
        clip-path: url(#clippath-26);
      }

      .cls-35 {
        clip-path: url(#clippath-29);
      }

      .cls-36 {
        clip-path: url(#clippath-34);
      }

      .cls-37 {
        clip-path: url(#clippath-35);
      }

      .cls-38 {
        clip-path: url(#clippath-36);
      }

      .cls-39 {
        clip-path: url(#clippath-37);
      }

      .cls-40 {
        clip-path: url(#clippath-39);
      }

      .cls-41 {
        clip-path: url(#clippath-33);
      }

      .cls-42 {
        clip-path: url(#clippath-32);
      }

      .cls-43 {
        clip-path: url(#clippath-30);
      }

      .cls-44 {
        clip-path: url(#clippath-38);
      }

      .cls-45 {
        clip-path: url(#clippath-31);
      }

      .cls-46 {
        clip-path: url(#clippath-14);
      }

      .cls-47 {
        clip-path: url(#clippath-13);
      }

      .cls-48 {
        clip-path: url(#clippath-12);
      }

      .cls-49 {
        clip-path: url(#clippath-10);
      }

      .cls-50 {
        clip-path: url(#clippath-15);
      }

      .cls-51 {
        clip-path: url(#clippath-17);
      }

      .cls-52 {
        clip-path: url(#clippath-16);
      }

      .cls-53 {
        clip-path: url(#clippath-19);
      }

      .cls-54 {
        clip-path: url(#clippath-11);
      }

      .cls-55 {
        clip-path: url(#clippath-18);
      }

      .cls-5 {
        fill: #d71218;
      }

      .cls-6 {
        fill: #d81118;
      }

      .cls-7 {
        fill: #851205;
      }

      .cls-8 {
        fill: #136e8d;
      }

      .cls-9 {
        fill: url(#linear-gradient-2);
        opacity: .5;
      }

      .cls-10 {
        fill: url(#linear-gradient-3);
      }

      .cls-11 {
        fill: #881206;
      }

      .cls-56 {
        isolation: isolate;
      }

      .cls-12 {
        fill: #136e8e;
      }
    </style>
    <linearGradient id="linear-gradient" x1="17.7" y1="77.6" x2="508.7" y2="77.6" gradientUnits="userSpaceOnUse">
      <stop offset="0" stop-color="#1cafe5"/>
      <stop offset="1" stop-color="#fff"/>
    </linearGradient>
    <linearGradient id="linear-gradient-2" x1="448.2" y1="44.7" x2="489.3" y2="132.8" gradientUnits="userSpaceOnUse">
      <stop offset="0" stop-color="#fff"/>
      <stop offset=".2" stop-color="#fdfefe"/>
      <stop offset=".3" stop-color="#f6fcfe"/>
      <stop offset=".4" stop-color="#eaf8fc"/>
      <stop offset=".4" stop-color="#d9f3fa"/>
      <stop offset=".4" stop-color="#c3ebf8"/>
      <stop offset=".5" stop-color="#a8e3f5"/>
      <stop offset=".5" stop-color="#87d8f1"/>
      <stop offset=".5" stop-color="#62cced"/>
      <stop offset=".6" stop-color="#39bfe8"/>
      <stop offset=".6" stop-color="#31bde8"/>
      <stop offset=".9" stop-color="#31bde8"/>
      <stop offset=".9" stop-color="#31bde8"/>
    </linearGradient>
    <linearGradient id="linear-gradient-3" x1="129.7" y1="-38.5" x2="385.1" y2="216.9" gradientUnits="userSpaceOnUse">
      <stop offset="0" stop-color="#31bde8"/>
      <stop offset=".4" stop-color="rgba(50, 189, 232, 1)" stop-opacity="1"/>
      <stop offset=".5" stop-color="rgba(56, 191, 232, 1)" stop-opacity="1"/>
      <stop offset=".6" stop-color="rgba(67, 194, 234, .9)" stop-opacity=".9"/>
      <stop offset=".7" stop-color="rgba(82, 199, 235, .8)" stop-opacity=".8"/>
      <stop offset=".8" stop-color="rgba(101, 205, 237, .7)" stop-opacity=".7"/>
      <stop offset=".8" stop-color="rgba(125, 213, 240, .6)" stop-opacity=".6"/>
      <stop offset=".9" stop-color="rgba(154, 222, 243, .5)" stop-opacity=".5"/>
      <stop offset=".9" stop-color="rgba(188, 233, 247, .3)" stop-opacity=".3"/>
      <stop offset="1" stop-color="rgba(224, 245, 251, .1)" stop-opacity=".1"/>
      <stop offset="1" stop-color="#fff" stop-opacity="0"/>
    </linearGradient>
    <clipPath id="clippath">
      <path class="cls-2" d="M54,92l1.7,1.8c1,1,1.7,1.8,2,2.4l-1.7-1.8c-.3-.6-1-1.4-2-2.4Z"/>
    </clipPath>
    <clipPath id="clippath-1">
      <path class="cls-2" d="M56,94.4l1.7,1.8c-.2.4-.5.8-.8,1.2l-1.7-1.8c.3-.4.5-.8.8-1.2Z"/>
    </clipPath>
    <clipPath id="clippath-2">
      <path class="cls-2" d="M55.2,95.6l1.7,1.8c-.2.4-.5.7-.8,1.1-.3.3-.7.6-1,.7l-1.7-1.8c.4-.1.7-.4,1-.7.3-.3.6-.7.8-1.1Z"/>
    </clipPath>
    <clipPath id="clippath-3">
      <path class="cls-2" d="M23.2,150.9c-.6-.6-1.2-1.2-1.7-1.8-.4-.4-.8-.9-1.2-1.4-2.1-2.5-3.8-5.6-5-9.4-1.2-3.8-1.8-8.3-1.8-13.6,0-5.2.7-9.7,2-13.5,1.3-3.8,3.1-6.9,5.2-9.3,2.2-2.4,4.6-4.2,7.2-5.4,2.7-1.2,5.4-1.7,8.2-1.7,2.1,0,3.9.2,5.3.5,1.4.3,2.6.7,3.7,1.1,1,.4,2,.7,2.8,1.1.8.3,1.8.5,2.8.5,1,0,1.9-.2,2.7-.8l1.7,1.8c-.8.5-1.7.8-2.7.8-1,0-1.9-.2-2.8-.5-.9-.3-1.8-.7-2.8-1.1-1-.4-2.3-.7-3.7-1.1-1.4-.3-3.2-.5-5.3-.5-2.8,0-5.5.5-8.2,1.7-2.7,1.2-5.1,3-7.2,5.4-2.2,2.4-3.9,5.5-5.2,9.3-1.3,3.8-2,8.3-2,13.5,0,5.3.5,9.8,1.8,13.6,1.2,3.8,2.9,6.9,5,9.4.4.5.8.9,1.2,1.4Z"/>
    </clipPath>
    <clipPath id="clippath-4">
      <path class="cls-2" d="M54,154c.6.6,1.2,1.2,1.7,1.8.3.3.5.6.7.8l-1.7-1.8c-.2-.3-.4-.6-.7-.8Z"/>
    </clipPath>
    <clipPath id="clippath-5">
      <path class="cls-2" d="M54.7,154.8l1.7,1.8c.3.4.5.8.7,1.2l-1.7-1.8c-.2-.4-.5-.8-.7-1.2Z"/>
    </clipPath>
    <clipPath id="clippath-6">
      <path class="cls-2" d="M11.8,156c-.6-.6-1.2-1.2-1.7-1.8,0,0,0,0,.1.1,3.3,3.4,7.2,5.9,11.6,7.6,4.4,1.7,8.9,2.6,13.6,2.7,3,0,5.6-.3,7.9-1,2.3-.7,4.3-1.5,5.9-2.4,1.7-.9,3-1.9,4-2.9,1-1,1.7-1.8,2-2.5l1.7,1.8c-.4.7-1,1.5-2,2.5-1,1-2.3,1.9-4,2.9-1.7.9-3.7,1.7-5.9,2.4-2.3.7-4.9,1-7.9,1-4.7,0-9.2-.9-13.6-2.7-4.4-1.7-8.3-4.3-11.6-7.6,0,0,0,0-.1-.1Z"/>
    </clipPath>
    <clipPath id="clippath-7">
      <path class="cls-2" d="M95.7,100.7l1.7,1.8c-1.2,2.9-2.4,6-3.6,9.3-1.1,2.8-2.3,6-3.6,9.5-1.3,3.5-2.7,7.1-4.2,10.8l-1.7-1.8c1.5-3.7,2.8-7.3,4.2-10.8,1.3-3.5,2.5-6.7,3.6-9.5,1.2-3.2,2.4-6.3,3.6-9.3Z"/>
    </clipPath>
    <clipPath id="clippath-8">
      <path class="cls-2" d="M126.8,87.9c.6.6,1.2,1.2,1.7,1.8.1.1.2.2.3.4,1.6,2.1,1.2,1.4,2,3.2l-1.7-1.8c-.8-1.7-.4-1.1-2-3.2-.1-.1-.2-.3-.3-.4Z"/>
    </clipPath>
    <clipPath id="clippath-9">
      <path class="cls-2" d="M64.6,164.2l1.7,1.8c-.5,0-1.1,0-1.6,0-1.4,0-2.9-.2-4.5-.7l-1.7-1.8c1.6.4,3,.7,4.5.7.5,0,1.1,0,1.6,0Z"/>
    </clipPath>
    <clipPath id="clippath-10">
      <path class="cls-2" d="M80.1,141.1l1.7,1.8c-1.6,4.1-3,7.6-4.2,10.6-1.2,3-2,5-2.4,6.1-1,2.4-2.4,4-4,4.9-1.6.9-3.3,1.4-4.9,1.5l-1.7-1.8c1.6-.1,3.3-.6,4.9-1.5,1.6-.9,3-2.5,4-4.8.4-1,1.2-3.1,2.4-6.1,1.2-3,2.6-6.6,4.2-10.6Z"/>
    </clipPath>
    <clipPath id="clippath-11">
      <path class="cls-2" d="M134.7,104.7l1.7,1.8c1,2.4,10,23.9,16.7,30.7l-1.7-1.8c-6.7-6.8-15.8-28.3-16.7-30.7Z"/>
    </clipPath>
    <clipPath id="clippath-12">
      <path class="cls-2" d="M120.6,163.7c-.6-.6-1.2-1.2-1.7-1.8.5.5,1,.9,1.6,1.2,1.7.9,3.3,1.4,4.9,1.6l1.7,1.8c-1.6-.2-3.3-.7-4.9-1.6-.6-.3-1.1-.7-1.6-1.2Z"/>
    </clipPath>
    <clipPath id="clippath-13">
      <path class="cls-2" d="M101.5,88.3c.6.6,1.2,1.2,1.7,1.8.5.6,1.1,1.2,1.7,2,.9,1.2,1.7,2.9,2.5,5,.5,1.3,1.3,3.6,2.5,6.8,1.2,3.2,2.6,7,4.2,11.2,1.6,4.2,3.3,8.7,5,13.4,1.8,4.7,3.4,9.1,5,13.4,1.6,4.2,3,8,4.2,11.2,1.2,3.3,2.1,5.6,2.5,6.9.3.7.6,1.4.8,2.1.3.7.5,1.3.7,1.9l-1.7-1.8c-.2-.6-.5-1.2-.7-1.9-.3-.7-.6-1.4-.8-2.1-.5-1.3-1.3-3.6-2.5-6.9-1.2-3.3-2.6-7-4.2-11.2-1.6-4.2-3.3-8.7-5-13.4-1.8-4.7-3.5-9.1-5-13.4-1.6-4.2-3-8-4.2-11.2-1.2-3.2-2.1-5.5-2.5-6.8-.8-2.1-1.6-3.7-2.5-5-.6-.8-1.1-1.5-1.7-2Z"/>
    </clipPath>
    <clipPath id="clippath-14">
      <path class="cls-2" d="M130.8,162.2l1.7,1.8c.3.7.5,1.3.7,2l-1.7-1.8c-.2-.7-.5-1.3-.7-2Z"/>
    </clipPath>
    <clipPath id="clippath-15">
      <path class="cls-2" d="M131.5,164.2l1.7,1.8c-1.6.4-3.1.6-4.5.6-.5,0-1.1,0-1.6-.1l-1.7-1.8c.5,0,1.1.1,1.6.1,1.4,0,2.9-.2,4.5-.6Z"/>
    </clipPath>
    <clipPath id="clippath-16">
      <path class="cls-2" d="M172.1,101.2c.6.6,1.2,1.2,1.7,1.8,3.6,3.7,5.9,9.5,5.9,16-.1,11.1-7,20-15.5,19.9-3.5,0-6.7-1.6-9.2-4.2l-1.7-1.8c2.5,2.6,5.7,4.1,9.2,4.2,8.5,0,15.4-8.9,15.5-19.9,0-6.5-2.2-12.3-5.9-16Z"/>
    </clipPath>
    <clipPath id="clippath-17">
      <path class="cls-2" d="M203,83.8c.6.6,1.2,1.2,1.7,1.8.4.4.7.9.9,1.3.6,1.4,0,8.8-1.4,15.3,0,.4-2,8.6-4.8,18l-1.7-1.8c2.9-9.5,4.7-17.6,4.8-18,1.4-6.5,2-13.9,1.4-15.3-.2-.4-.5-.9-.9-1.3Z"/>
    </clipPath>
    <clipPath id="clippath-18">
      <path class="cls-2" d="M148.5,162.3c-.6-.6-1.2-1.2-1.7-1.8,3.3,3.3,7,4.9,11.4,6,1.4.4,2.9.5,4.4.5,5.3,0,10.7-1.8,12.7-2.8,2.5-1.2,6.6-3.7,10.1-9.3,6.5-10.4,12.1-35.3,12.4-36.7l1.7,1.8c-.3,1.3-5.9,26.3-12.4,36.7-3.5,5.6-7.7,8-10.1,9.3-1.9,1-7.3,2.9-12.7,2.8-1.5,0-3-.2-4.4-.5-4.4-1.2-8.2-2.7-11.4-6Z"/>
    </clipPath>
    <clipPath id="clippath-19">
      <path class="cls-2" d="M221.7,88.1l1.7,1.8c0,.4-.2,1.1-.2,2l-1.7-1.8c0-.9.1-1.6.2-2Z"/>
    </clipPath>
    <clipPath id="clippath-20">
      <path class="cls-2" d="M221.4,90.1l1.7,1.8c0,.8-.1,1.9-.2,3.3,0,1.4,0,3.2-.1,5.4l-1.7-1.8c0-2.2,0-4,.1-5.4,0-1.4.1-2.5.2-3.3Z"/>
    </clipPath>
    <clipPath id="clippath-21">
      <path class="cls-2" d="M220.4,152.8l1.7,1.8c0,4.4-1.2,7.6-3.5,9.5-2.3,1.9-5.6,2.8-9.9,2.8l-1.7-1.8c4.3,0,7.6-.9,9.9-2.8,2.3-1.9,3.5-5.1,3.5-9.5Z"/>
    </clipPath>
    <clipPath id="clippath-22">
      <path class="cls-2" d="M251,93.6c.6.6,1.2,1.2,1.7,1.8,1.1,1.2,2.2,2.6,3.2,4.2,1.5,2.3,2.8,5.3,4.1,8.7l-1.7-1.8c-1.2-3.5-2.6-6.4-4.1-8.7-1-1.6-2.1-3-3.2-4.2Z"/>
    </clipPath>
    <clipPath id="clippath-23">
      <path class="cls-2" d="M258.3,106.5l1.7,1.8c0,.3.3.9.6,1.8.3.9.7,2,1.1,3.2.4,1.3.9,2.6,1.3,4.1.5,1.5,1,3,1.5,4.6,1.2,3.6,2.4,7.5,3.8,11.9l-1.7-1.8c-1.4-4.4-2.7-8.4-3.8-11.9-.5-1.6-1-3.1-1.5-4.6-.5-1.5-.9-2.9-1.3-4.1-.4-1.3-.8-2.3-1.1-3.2-.3-.9-.5-1.5-.6-1.8Z"/>
    </clipPath>
    <clipPath id="clippath-24">
      <path class="cls-2" d="M235.7,163.7c-.6-.6-1.2-1.2-1.7-1.8.2.2.4.4.6.5,2.3,1.9,5.6,2.9,10.1,2.9l1.7,1.8c-4.4,0-7.8-1-10.1-2.9-.2-.2-.4-.3-.6-.5Z"/>
    </clipPath>
    <clipPath id="clippath-25">
      <path class="cls-2" d="M244.3,154.7l1.7,1.8c0,2.2,0,4,0,5.4,0,1.4,0,2.5.1,3.3,0,.9.1,1.6.2,2l-1.7-1.8c0-.4-.1-1.1-.2-2,0-.8-.1-1.9-.1-3.3,0-1.4,0-3.2,0-5.4Z"/>
    </clipPath>
    <clipPath id="clippath-26">
      <path class="cls-2" d="M289.3,101.7l1.7,1.8c-2,6-4,11.5-5.9,16.7-.8,2.2-1.6,4.5-2.5,6.8-.8,2.3-1.6,4.5-2.4,6.6-.8,2.1-1.5,4-2.1,5.7-.7,1.7-1.2,3.1-1.8,4.3-1.1,2.4-2.5,4.1-4.1,5-1.6.9-3.2,1.4-4.7,1.6-.3,0-.7,0-1,0-1.5,0-2.9-.3-4.4-.9l-1.7-1.8c1.5.6,3,.8,4.4.9.3,0,.7,0,1,0,1.5-.1,3.1-.7,4.7-1.6,1.6-.9,3-2.6,4.1-5,.5-1.1,1.1-2.5,1.8-4.3.7-1.7,1.4-3.6,2.1-5.7.8-2.1,1.6-4.3,2.4-6.6.8-2.3,1.7-4.6,2.5-6.8,1.9-5.2,3.9-10.7,5.9-16.7Z"/>
    </clipPath>
    <clipPath id="clippath-27">
      <path class="cls-2" d="M301.2,155.1l1.7,1.8c0,2.2,0,4,0,5.4,0,1.4,0,2.5.1,3.3,0,.9.1,1.6.2,2l-1.7-1.8c0-.4-.1-1.1-.2-2,0-.8-.1-1.9-.1-3.3,0-1.4,0-3.2,0-5.4Z"/>
    </clipPath>
    <clipPath id="clippath-28">
      <path class="cls-2" d="M292.7,164.2c-.6-.6-1.2-1.2-1.7-1.8.2.2.4.4.6.6,2.3,1.9,5.7,2.9,10,2.9l1.7,1.8c-4.3,0-7.7-1-10-2.9-.2-.2-.4-.4-.6-.6Z"/>
    </clipPath>
    <clipPath id="clippath-29">
      <path class="cls-2" d="M344.5,102.8l1.7,1.8c-1.2,2.9-2.4,6-3.6,9.3-1.1,2.8-2.3,6-3.6,9.5-1.3,3.5-2.7,7.1-4.2,10.8l-1.7-1.8c1.5-3.7,2.9-7.3,4.2-10.8,1.3-3.5,2.5-6.7,3.6-9.5,1.2-3.2,2.4-6.3,3.6-9.3Z"/>
    </clipPath>
    <clipPath id="clippath-30">
      <path class="cls-2" d="M313.5,166.3l1.7,1.8c-.5,0-1.1,0-1.6,0-1.4,0-2.9-.2-4.5-.7l-1.7-1.8c1.5.4,3,.7,4.5.7.5,0,1.1,0,1.6,0Z"/>
    </clipPath>
    <clipPath id="clippath-31">
      <path class="cls-2" d="M329,143.3l1.7,1.8c-1.6,4.1-3,7.6-4.2,10.6-1.2,3-2,5-2.4,6.1-1,2.4-2.4,4-4,4.8-1.6.9-3.3,1.4-4.9,1.5l-1.7-1.8c1.6-.1,3.3-.6,4.9-1.5,1.6-.9,3-2.5,4-4.8.4-1,1.2-3.1,2.4-6.1,1.2-3,2.5-6.6,4.2-10.6Z"/>
    </clipPath>
    <clipPath id="clippath-32">
      <path class="cls-2" d="M369.5,165.8c-.6-.6-1.2-1.2-1.7-1.8.5.5,1,.9,1.6,1.2,1.7.9,3.3,1.4,4.9,1.6l1.7,1.8c-1.6-.2-3.3-.7-4.9-1.6-.6-.3-1.1-.7-1.6-1.2Z"/>
    </clipPath>
    <clipPath id="clippath-33">
      <path class="cls-2" d="M350.4,90.4c.6.6,1.2,1.2,1.7,1.8.6.6,1.1,1.2,1.7,2,.9,1.2,1.7,2.9,2.5,5,.5,1.3,1.3,3.6,2.5,6.8,1.2,3.2,2.6,7,4.2,11.2,1.6,4.2,3.3,8.7,5,13.4,1.8,4.7,3.5,9.1,5,13.4,1.6,4.2,3,8,4.2,11.2,1.2,3.3,2.1,5.6,2.5,6.9.3.7.6,1.4.8,2.1.3.7.5,1.3.7,1.9l-1.7-1.8c-.2-.6-.5-1.2-.7-1.9-.3-.7-.6-1.4-.8-2.1-.5-1.3-1.3-3.6-2.5-6.9-1.2-3.3-2.6-7-4.2-11.2-1.6-4.2-3.3-8.7-5-13.4-1.8-4.7-3.4-9.1-5-13.4-1.6-4.2-3-8-4.2-11.2-1.2-3.2-2.1-5.5-2.6-6.8-.8-2.1-1.6-3.7-2.5-5-.6-.8-1.1-1.5-1.7-2Z"/>
    </clipPath>
    <clipPath id="clippath-34">
      <path class="cls-2" d="M379.7,164.4l1.7,1.8c.3.7.5,1.3.7,2l-1.7-1.8c-.2-.7-.5-1.3-.7-2Z"/>
    </clipPath>
    <clipPath id="clippath-35">
      <path class="cls-2" d="M380.4,166.4l1.7,1.8c-1.6.4-3.1.6-4.5.6-.5,0-1.1,0-1.6-.1l-1.7-1.8c.5,0,1.1.1,1.6.1,1.4,0,2.9-.2,4.5-.6Z"/>
    </clipPath>
    <clipPath id="clippath-36">
      <path class="cls-2" d="M436.9,95.3l1.7,1.8c1,1,1.7,1.8,2,2.4l-1.7-1.8c-.4-.6-1-1.4-2-2.4Z"/>
    </clipPath>
    <clipPath id="clippath-37">
      <path class="cls-2" d="M438.9,97.7l1.7,1.8c-.2.4-.5.8-.8,1.2l-1.7-1.8c.3-.4.5-.8.8-1.2Z"/>
    </clipPath>
    <clipPath id="clippath-38">
      <path class="cls-2" d="M438.1,98.9l1.7,1.8c-.2.4-.5.7-.8,1.1-.3.3-.7.6-1,.7l-1.7-1.8c.4-.1.7-.4,1-.7.3-.3.6-.7.8-1.1Z"/>
    </clipPath>
    <clipPath id="clippath-39">
      <path class="cls-2" d="M406.1,154.2c-.6-.6-1.2-1.2-1.7-1.8-.4-.4-.8-.9-1.2-1.4-2.1-2.5-3.8-5.6-5-9.4-1.2-3.8-1.8-8.3-1.8-13.6,0-5.2.7-9.7,2.1-13.5,1.3-3.8,3.1-6.9,5.2-9.3,2.2-2.4,4.6-4.2,7.3-5.4,2.7-1.2,5.4-1.7,8.2-1.7,2.1,0,3.9.2,5.3.5,1.4.3,2.6.7,3.7,1.1,1,.4,2,.7,2.8,1.1.9.3,1.8.5,2.8.5,1,0,1.9-.2,2.7-.8l1.7,1.8c-.8.5-1.7.8-2.7.8-1,0-1.9-.2-2.8-.5-.9-.3-1.8-.7-2.8-1.1-1-.4-2.3-.7-3.7-1.1-1.4-.3-3.2-.5-5.3-.5-2.8,0-5.5.5-8.2,1.7-2.7,1.2-5.1,3-7.3,5.4-2.2,2.4-3.9,5.5-5.2,9.3-1.3,3.8-2,8.3-2.1,13.5,0,5.3.5,9.8,1.8,13.6,1.2,3.8,2.9,6.9,5,9.4.4.5.8.9,1.2,1.4Z"/>
    </clipPath>
    <clipPath id="clippath-40">
      <path class="cls-2" d="M436.8,157.2c.6.6,1.2,1.2,1.7,1.8.3.3.5.6.7.9l-1.7-1.8c-.2-.3-.4-.6-.7-.9Z"/>
    </clipPath>
    <clipPath id="clippath-41">
      <path class="cls-2" d="M437.6,158.1l1.7,1.8c.3.4.5.8.7,1.2l-1.7-1.8c-.2-.4-.5-.8-.7-1.2Z"/>
    </clipPath>
    <clipPath id="clippath-42">
      <path class="cls-2" d="M394.7,159.3c-.6-.6-1.2-1.2-1.7-1.8,0,0,0,0,.1.1,3.3,3.4,7.2,5.9,11.6,7.6,4.4,1.7,8.9,2.6,13.6,2.7,3,0,5.6-.3,7.9-1s4.3-1.5,5.9-2.4c1.7-.9,3-1.9,4-2.9,1-1,1.7-1.8,2.1-2.5l1.7,1.8c-.4.7-1,1.5-2.1,2.5-1,1-2.3,1.9-4,2.9-1.7.9-3.7,1.7-5.9,2.4-2.3.7-4.9,1-7.9,1-4.7,0-9.2-.9-13.6-2.7-4.4-1.7-8.3-4.3-11.6-7.6,0,0,0,0-.1-.1Z"/>
    </clipPath>
  </defs>
  <g id="courbe">
    <path class="cls-3" d="M17.7,76.2S52.9,12.2,239.3,11.6c0,0,110.9.8,175.5,24.5,0,0,61.2,17.9,68.1,59.3,0,0,9.3,39.7-29.2,59.8,0,0,58.3-26.7,54.9-59.4-6.3-59.7-107.7-81.9-137-85.2,0,0-37.9-7.7-96.7-10.4,0,0-1.7,0-5-.1-11.3-.2-52,0-88.4,5.2,0,0-1.6.2-4.5.7-19.1,3-88.3,16.6-125.8,38.5-27.3,16-33.5,31.7-33.5,31.7Z"/>
    <path class="cls-9" d="M504.6,104.8c-3.7,17.8-16,30.4-45.4,47.3,0,0,49.6-19.5,49.6-52.4s-24.8-46.3-30.6-50.6c0,0,32.1,28.4,26.4,55.7Z"/>
    <path class="cls-10" d="M483.2,99.8c-7-41.1-68.3-60.9-68.3-60.9C347.2,15.2,238.9,12.5,238.9,12.5,43.6,11.5,13.4,82.9,14.6,80.2c0,0,6-16,35.7-32,49.1-26.5,105.2-31.5,124.8-33.8,3.1-.4,4.9-.5,4.9-.5,58-5,93.4-1.9,93.4-1.9,46,2.9,69.7,7.5,81.7,9.3,2.4.4,7.7,1.3,7.7,1.3,53.3,9.6,113.1,28.3,123,75.2,0,0,2.2,12.8-2.9,21.6,3.1-7.6.6-19.6.6-19.6Z"/>
  </g>
  <g id="Le_régime_social_des_cultes" data-name="Le régime social des cultes">
    <g>
      <path class="cls-6" d="M3.6,206c0-.8,0-1.4,0-1.9s0-.9,0-1.2c0-.3,0-.6,0-.7,3.3,0,4.9,1.6,4.9,4.7v10.2c0,1.7.2,3.2.3,4.4.1,1.2.5,2.1.9,2.8.5.7,1.1,1.2,2,1.5.9.3,2,.5,3.5.5s1.3,0,1.8,0c.5,0,1,0,1.4,0,.5,0,.9,0,1.2-.1v.2c0,.4,0,.9-.3,1.3-.2.5-.5.9-.9,1.3-.4.4-.9.7-1.6.9-.6.3-1.4.4-2.3.4-2.1,0-3.9-.2-5.3-.7-1.4-.4-2.5-1.2-3.3-2.2-.8-1-1.4-2.4-1.7-4.1-.3-1.7-.5-3.8-.5-6.4v-10.8Z"/>
      <path class="cls-6" d="M23.4,219.9c.7-.5,1.5-.8,2.4-1,.9-.2,1.9-.3,2.8-.3s2.7.2,4,.6c0-.8-.3-1.6-.5-2.2-.3-.8-.9-1.4-1.6-1.8-.3-.1-.6-.2-.9-.3-.3,0-.7-.1-1.1-.1h-.4c-.4,0-.7,0-1.1.2-.4,0-.7.2-1.1.3-.4.1-.7.2-1.1.3-.4,0-.7.1-1.1.1s-.7,0-1.1-.2c-.3-.2-.6-.5-.8-.9v-.2c0,0,0-.1,0-.1.8-.9,1.7-1.5,2.8-2.1,1.1-.5,2.3-.8,3.5-.9.1,0,.2,0,.3,0h.3c1.2,0,2.3.2,3.4.7,1,.4,1.9,1,2.6,1.8,1.5,1.7,2.3,3.8,2.4,6.5v.3c0,2.8-.7,5-2.1,6.8-.7.9-1.5,1.5-2.5,2.1-1,.5-2.1.9-3.3,1-.2,0-.3,0-.5,0h-.5c-.6,0-1.1,0-1.8-.1-.6,0-1.2-.3-1.8-.5-.6-.2-1.2-.6-1.7-.9-.5-.4-.9-.9-1.3-1.5-.5-.8-.8-1.7-.8-2.8v-.2c0-1,.2-1.9.6-2.6.4-.7.9-1.3,1.7-1.8ZM31.7,221.9c-.3,0-.7-.1-1.2-.2-.4,0-.9,0-1.3,0s-.7,0-1.1,0c-.3,0-.7.1-1,.2-.7.2-1.2.5-1.5,1-.1.2-.2.3-.3.5s-.1.4-.2.7c0,0,0,.2,0,.4,0,.3,0,.6.1.9,0,.3.2.6.5.9.2.3.5.5.9.7.4.2,1,.3,1.7.3s.4,0,.5,0c.7,0,1.4-.2,2-.6.3-.2.5-.4.7-.6s.3-.5.5-.7c.3-.5.5-1,.6-1.6.1-.5.2-1,.2-1.5,0,0,0,0,0,0,0,0,0,0,0,0-.1,0-.2,0-.4,0-.1,0-.3,0-.5-.1Z"/>
      <path class="cls-6" d="M58.8,225.5c0-.5,0-.8-.4-1.1-.3-.3-.7-.6-1.3-.9-.6-.3-1.2-.6-2-.9-.8-.3-1.6-.7-2.4-1.3-.6-.4-1.2-.8-1.6-1.3-.4-.5-.7-1.1-.9-1.7-.2-.6-.3-1.2-.2-1.8,0-.6.2-1.2.4-1.9.3-.6.6-1.1,1-1.5.4-.4.9-.7,1.4-1,.5-.3,1-.4,1.6-.5.5-.1,1-.2,1.5-.2h.5c1.4,0,2.7.4,3.9,1,1.2.6,2.2,1.4,3,2.4h.1c0,.1-.1.3-.1.3-.3.4-.6.7-.9.8-.3.2-.6.3-1,.3s-.7,0-1.1-.2c-.3-.1-.7-.3-1.1-.5-.5-.2-1-.4-1.4-.5s-.9-.2-1.3-.2-1,.1-1.3.4c-.3.3-.5.6-.5.9,0,.5.1.9.5,1.3.4.3.9.6,1.6.9.8.3,1.7.7,2.6,1.1.9.4,1.8.9,2.5,1.5.7.6,1.3,1.3,1.6,2.2.4.8.4,1.9.1,3.1-.1.5-.4,1-.7,1.5-.3.5-.8,1-1.3,1.4-.6.4-1.3.8-2.1,1.1-.8.3-1.8.4-2.9.4s-.4,0-.5,0c-1.3,0-2.5-.4-3.8-1-1.2-.6-2.3-1.4-3.1-2.4h-.1c0-.1.1-.3.1-.3.1-.2.3-.4.4-.5.2-.1.3-.3.4-.4.3-.2.6-.2,1-.2s.7,0,1.1.2c.3.1.7.3,1.1.5.4.2.8.3,1.3.5.5.1,1,.2,1.5.3,1,0,1.6-.2,2.1-.6.4-.4.6-.7.7-1.1Z"/>
      <path class="cls-6" d="M81.4,226.3c.3.2.6.5.9,1h.1c0,.1-.1.2-.1.2-.9,1-1.9,1.7-3.1,2.3s-2.5.8-3.9.8-2.4-.2-3.5-.7-2-1.2-2.9-2.1c-.8-.9-1.4-1.9-1.9-3-.5-1.2-.7-2.4-.7-3.7s.2-2.6.6-3.7c.4-1.2,1-2.2,1.8-3.1.8-.9,1.7-1.5,2.8-2,1.1-.5,2.3-.8,3.7-.8s1.6.1,2.5.3,1.7.6,2.5,1.1,1.4,1.1,1.9,1.9c.5.8.8,1.8.8,2.9s-.3,2-.8,2.7c-.6.7-1.2,1.2-2,1.6-.8.4-1.6.7-2.5.8-.9.1-1.6.2-2.3.2-1,0-1.8,0-2.6-.2s-1.2-.2-1.5-.3c.1,1,.3,1.7.6,2.3.3.6.7,1.1,1.1,1.4s.8.6,1.2.7c.4.1.8.2,1.1.2.6,0,1.1,0,1.6-.2.5-.1,1-.2,1.4-.4.4-.1.8-.3,1.1-.4.4-.1.7-.2,1.1-.2s.7,0,1,.3ZM69.7,208.7c.5-.5.9-1.1,1.4-1.6.4-.5.9-.9,1.4-1.5.5-.5,1.1-1,1.6-1.5.7-.6,1.3-1,1.9-1.2.6-.2,1.1-.4,1.5-.4.5,0,1,0,1.4.1.2.9.1,1.8-.4,2.5-.5.7-1.2,1.4-2.1,1.9-.9.5-2,.9-3.2,1.2-1.2.3-2.4.5-3.6.5ZM75.3,214.8c-.3,0-.6.1-1,.2-.4.1-.8.3-1.2.7-.4.3-.7.8-1.1,1.4-.3.6-.5,1.3-.7,2.2.4.1,1,.3,1.8.4.8.1,1.6.1,2.4,0,.8,0,1.5-.3,2.1-.7.6-.4.9-1,1-1.9,0-.7-.2-1.2-.8-1.7-.6-.5-1.4-.7-2.5-.6Z"/>
      <path class="cls-6" d="M94.9,214.8c-.3,0-.8,0-1.2.2-.5.2-.9.5-1.3.9-.4.4-.8,1.1-1.1,1.9-.3.8-.4,1.9-.4,3.1s.1,2.3.4,3.1c.3.8.7,1.4,1.1,1.9.4.4.9.7,1.3.9.5.2.9.2,1.2.2.6,0,1.1,0,1.6-.2.5-.1,1-.2,1.4-.4.4-.2.8-.3,1.1-.4.4-.1.7-.2,1.1-.2s.7,0,1,.3c.3.2.6.5.9.9v.2c0,0,0,.1,0,.1-.9,1-1.9,1.7-3.1,2.3s-2.5.8-3.9.8-2.4-.3-3.5-.8c-1.1-.5-2-1.2-2.9-2-.8-.9-1.4-1.9-1.9-3-.5-1.2-.7-2.4-.7-3.7s.2-2.6.6-3.7c.4-1.2,1-2.2,1.8-3.1.8-.9,1.7-1.5,2.8-2,1.1-.5,2.3-.8,3.7-.8s2.7.3,3.9.8c1.2.5,2.3,1.3,3.1,2.3h.1c0,.1-.1.3-.1.3-.3.5-.6.8-.9.9-.3.2-.7.3-1,.3-.3,0-.7,0-1.1-.2s-.7-.2-1.1-.4c-.4-.2-.9-.3-1.4-.4-.5-.1-1-.2-1.6-.2Z"/>
      <path class="cls-6" d="M122.4,221.9c0,1.8-.3,3.2-.8,4.4-.5,1.1-1.2,2-2.1,2.6-.8.6-1.8,1.1-2.8,1.3s-2.1.4-3.1.4-2-.1-3.1-.4c-1-.2-2-.7-2.8-1.3-.8-.6-1.5-1.5-2-2.6s-.8-2.6-.8-4.4v-5.6c0-1.6.5-2.7,1.3-3.4.9-.7,2.1-1,3.8-1,0,.2,0,.4,0,.7,0,.3,0,.7,0,1.2,0,.5,0,1.2,0,2v6.2c0,1.1.1,2,.4,2.7.2.7.5,1.2.9,1.6.4.4.8.6,1.2.8.4.1.9.2,1.3.2s.9,0,1.3-.2c.4-.1.8-.4,1.2-.8.4-.4.6-.9.9-1.6.2-.7.3-1.6.3-2.7v-5.6c0-1.6.5-2.7,1.4-3.4.9-.7,2.1-1,3.8-1,0,.2,0,.4,0,.7,0,.3,0,.7,0,1.2,0,.5,0,1.2,0,2v6.2Z"/>
      <path class="cls-6" d="M125.7,220.5c0-1.8.3-3.2.8-4.4.5-1.1,1.2-2,2-2.7.8-.6,1.8-1.1,2.8-1.3,1-.2,2-.3,3.1-.3h2c.1.6.2,1.1,0,1.6,0,.4-.2.8-.5,1.2-.3.4-.8.6-1.5.7-.5,0-.9.2-1.3.3-.4.1-.8.4-1.2.8-.3.4-.6.9-.9,1.5-.2.7-.3,1.6-.3,2.7v5.8c0,.8,0,1.4,0,1.9,0,.5,0,.9,0,1.2,0,.3,0,.6,0,.7-1.6,0-2.9-.3-3.8-1-.9-.7-1.3-1.8-1.3-3.4v-5.2Z"/>
      <path class="cls-6" d="M143.4,205.9c-.6.9-1.3,1.4-2.3,1.4s-.8,0-1.2-.3c-.4-.2-.7-.6-.9-.9-.2-.4-.3-.8-.3-1.3s.1-1,.4-1.4c.2-.5.6-.8,1-1.1.4-.3.9-.4,1.3-.4s.8.1,1.2.3c.4.2.7.5,1,.9.2.4.3.8.3,1.3s-.1.9-.4,1.4ZM146.5,226.5c-.1.2-.4.3-.7.5s-.6.2-1,0c-.3,0-.6-.2-.8-.5-.2-.3-.4-.7-.4-1.4v-9.6c0-.8,0-1.4,0-1.9,0-.5,0-.9,0-1.2,0-.3,0-.6,0-.8-1.7,0-2.9.3-3.8,1-.9.7-1.3,1.8-1.3,3.4v9.4c0,.7,0,1.3.3,1.9.2.6.5,1.1.9,1.6.4.5.9.8,1.5,1.1.6.3,1.3.3,2.2.3.9,0,1.5-.3,1.9-.7.4-.4.7-.9.8-1.4.2-.6.2-1.2.2-1.9Z"/>
      <path class="cls-6" d="M159.6,226.6c0,0,0,.2,0,.3,0,.2,0,.4,0,.6,0,.5-.1.9-.3,1.3-.2.4-.5.7-.9,1-.7.5-1.7.8-2.7.8s-1.7-.2-2.6-.6c-.9-.4-1.6-1-2.3-1.8-.7-.8-1.2-1.8-1.7-3-.4-1.2-.6-2.6-.6-4.2v-11.6c0-1.6.5-2.7,1.3-3.4.9-.7,2.1-1,3.7-1,0,.2,0,.4,0,.8,0,.3,0,.7,0,1.2,0,.5,0,1.1,0,1.9v2.5h5.4c0,1.2-.3,2.2-1,2.9-.7.7-1.6,1.1-2.8,1.1h-1.5v5.7c0,1.1,0,2.1.3,2.8.2.8.5,1.4.8,1.9.7.9,1.7,1.4,2.8,1.4s1,0,1.4-.2c.3,0,.5-.2.8-.2Z"/>
      <path class="cls-6" d="M176.6,226.3c.3.2.6.5.9,1h.1c0,.1-.1.2-.1.2-.9,1-1.9,1.7-3.1,2.3s-2.5.8-3.9.8-2.4-.2-3.5-.7-2-1.2-2.9-2.1c-.8-.9-1.4-1.9-1.9-3-.5-1.2-.7-2.4-.7-3.7s.2-2.6.6-3.7c.4-1.2,1-2.2,1.8-3.1.8-.9,1.7-1.5,2.8-2,1.1-.5,2.3-.8,3.7-.8s1.6.1,2.5.3,1.7.6,2.5,1.1,1.4,1.1,1.9,1.9c.5.8.8,1.8.8,2.9s-.3,2-.8,2.7c-.6.7-1.2,1.2-2,1.6-.8.4-1.6.7-2.5.8-.9.1-1.6.2-2.3.2-1,0-1.8,0-2.6-.2s-1.2-.2-1.5-.3c.1,1,.3,1.7.6,2.3.3.6.7,1.1,1.1,1.4s.8.6,1.2.7c.4.1.8.2,1.1.2.6,0,1.1,0,1.6-.2.5-.1,1-.2,1.4-.4.4-.1.8-.3,1.1-.4.4-.1.7-.2,1.1-.2s.7,0,1,.3ZM164.8,208.7c.5-.5.9-1.1,1.4-1.6.4-.5.9-.9,1.4-1.5.5-.5,1.1-1,1.6-1.5.7-.6,1.3-1,1.9-1.2.6-.2,1.1-.4,1.5-.4.5,0,1,0,1.4.1.2.9.1,1.8-.4,2.5-.5.7-1.2,1.4-2.1,1.9-.9.5-2,.9-3.2,1.2-1.2.3-2.4.5-3.6.5ZM170.4,214.8c-.3,0-.6.1-1,.2-.4.1-.8.3-1.2.7-.4.3-.7.8-1.1,1.4-.3.6-.5,1.3-.7,2.2.4.1,1,.3,1.8.4.8.1,1.6.1,2.4,0,.8,0,1.5-.3,2.1-.7.6-.4.9-1,1-1.9,0-.7-.2-1.2-.8-1.7-.6-.5-1.4-.7-2.5-.6Z"/>
      <path class="cls-6" d="M199.8,225.5c0-.5,0-.8-.4-1.1-.3-.3-.7-.6-1.3-.9-.6-.3-1.2-.6-2-.9-.8-.3-1.6-.7-2.4-1.3-.6-.4-1.2-.8-1.6-1.3-.4-.5-.7-1.1-.9-1.7-.2-.6-.3-1.2-.2-1.8,0-.6.2-1.2.4-1.9.3-.6.6-1.1,1-1.5.4-.4.9-.7,1.4-1,.5-.3,1-.4,1.6-.5.5-.1,1-.2,1.5-.2h.5c1.4,0,2.7.4,3.9,1,1.2.6,2.2,1.4,3,2.4h.1c0,.1-.1.3-.1.3-.3.4-.6.7-.9.8-.3.2-.6.3-1,.3s-.7,0-1.1-.2c-.3-.1-.7-.3-1.1-.5-.5-.2-1-.4-1.4-.5s-.9-.2-1.3-.2-1,.1-1.3.4c-.3.3-.5.6-.5.9,0,.5.1.9.5,1.3.4.3.9.6,1.6.9.8.3,1.7.7,2.6,1.1.9.4,1.8.9,2.5,1.5.7.6,1.3,1.3,1.6,2.2.4.8.4,1.9.1,3.1-.1.5-.4,1-.7,1.5-.3.5-.8,1-1.3,1.4-.6.4-1.3.8-2.1,1.1-.8.3-1.8.4-2.9.4s-.4,0-.5,0c-1.3,0-2.5-.4-3.8-1-1.2-.6-2.3-1.4-3.1-2.4h-.1c0-.1.1-.3.1-.3.1-.2.3-.4.4-.5.2-.1.3-.3.4-.4.3-.2.6-.2,1-.2s.7,0,1.1.2c.3.1.7.3,1.1.5.4.2.8.3,1.3.5.5.1,1,.2,1.5.3,1,0,1.6-.2,2.1-.6.4-.4.6-.7.7-1.1Z"/>
      <path class="cls-6" d="M222.6,214.2c.8.9,1.5,1.9,1.9,3,.5,1.2.7,2.4.7,3.7s-.2,2.6-.6,3.7c-.4,1.2-1,2.2-1.8,3-.8.9-1.7,1.6-2.8,2.1-1.1.5-2.3.8-3.7.8s-2.4-.3-3.5-.8c-1.1-.5-2-1.2-2.9-2.1-.8-.9-1.4-1.9-1.9-3-.5-1.2-.7-2.4-.7-3.7s.2-2.6.6-3.7c.4-1.2,1-2.2,1.8-3,.8-.9,1.7-1.6,2.8-2.1,1.1-.5,2.3-.8,3.7-.8s2.4.3,3.5.8c1.1.5,2,1.2,2.8,2.1ZM216.3,227.1c.3,0,.8,0,1.2-.2.5-.2.9-.5,1.3-.9.4-.5.8-1.1,1.1-1.9.3-.8.4-1.8.4-3.1s-.1-2.3-.4-3.1c-.3-.8-.7-1.4-1.1-1.9-.4-.4-.9-.7-1.3-.9-.5-.2-.9-.2-1.2-.2s-.8,0-1.2.2c-.5.2-.9.5-1.3.9-.4.4-.8,1.1-1.1,1.9-.3.8-.4,1.9-.4,3.1s.1,2.3.4,3.1c.3.8.7,1.4,1.1,1.9.4.5.9.8,1.3.9.5.2.9.2,1.2.2Z"/>
      <path class="cls-6" d="M237,214.8c-.3,0-.8,0-1.2.2-.5.2-.9.5-1.3.9-.4.4-.8,1.1-1.1,1.9-.3.8-.4,1.9-.4,3.1s.1,2.3.4,3.1c.3.8.7,1.4,1.1,1.9.4.4.9.7,1.3.9.5.2.9.2,1.2.2.6,0,1.1,0,1.6-.2.5-.1,1-.2,1.4-.4.4-.2.8-.3,1.1-.4.4-.1.7-.2,1.1-.2s.7,0,1,.3c.3.2.6.5.9.9v.2c0,0,0,.1,0,.1-.9,1-1.9,1.7-3.1,2.3s-2.5.8-3.9.8-2.4-.3-3.5-.8c-1.1-.5-2-1.2-2.9-2-.8-.9-1.4-1.9-1.9-3-.5-1.2-.7-2.4-.7-3.7s.2-2.6.6-3.7c.4-1.2,1-2.2,1.8-3.1.8-.9,1.7-1.5,2.8-2,1.1-.5,2.3-.8,3.7-.8s2.7.3,3.9.8c1.2.5,2.3,1.3,3.1,2.3h.1c0,.1-.1.3-.1.3-.3.5-.6.8-.9.9-.3.2-.7.3-1,.3-.3,0-.7,0-1.1-.2s-.7-.2-1.1-.4c-.4-.2-.9-.3-1.4-.4-.5-.1-1-.2-1.6-.2Z"/>
      <path class="cls-6" d="M251.9,205.9c-.6.9-1.3,1.4-2.3,1.4s-.8,0-1.2-.3c-.4-.2-.7-.6-.9-.9-.2-.4-.3-.8-.3-1.3s.1-1,.4-1.4c.2-.5.6-.8,1-1.1.4-.3.9-.4,1.3-.4s.8.1,1.2.3c.4.2.7.5,1,.9.2.4.3.8.3,1.3s-.1.9-.4,1.4ZM255,226.5c-.1.2-.4.3-.7.5s-.6.2-1,0c-.3,0-.6-.2-.8-.5-.2-.3-.4-.7-.4-1.4v-9.6c0-.8,0-1.4,0-1.9,0-.5,0-.9,0-1.2,0-.3,0-.6,0-.8-1.7,0-2.9.3-3.8,1-.9.7-1.3,1.8-1.3,3.4v9.4c0,.7,0,1.3.3,1.9.2.6.5,1.1.9,1.6.4.5.9.8,1.5,1.1.6.3,1.3.3,2.2.3.9,0,1.5-.3,1.9-.7.4-.4.7-.9.8-1.4.2-.6.2-1.2.2-1.9Z"/>
      <path class="cls-6" d="M259.2,219.9c.7-.5,1.5-.8,2.4-1,.9-.2,1.9-.3,2.8-.3s2.7.2,4,.6c0-.8-.3-1.6-.5-2.2-.3-.8-.9-1.4-1.6-1.8-.3-.1-.6-.2-.9-.3s-.7-.1-1.1-.1h-.4c-.4,0-.7,0-1.1.2-.4,0-.7.2-1.1.3-.4.1-.7.2-1.1.3-.4,0-.7.1-1.1.1s-.7,0-1.1-.2c-.3-.2-.6-.5-.8-.9v-.2c0,0,0-.1,0-.1.8-.9,1.7-1.5,2.8-2.1,1.1-.5,2.3-.8,3.5-.9.1,0,.2,0,.3,0h.3c1.2,0,2.3.2,3.4.7,1,.4,1.9,1,2.6,1.8,1.5,1.7,2.3,3.8,2.4,6.5v.3c0,2.8-.7,5-2.1,6.8-.7.9-1.5,1.5-2.5,2.1-1,.5-2.1.9-3.3,1-.2,0-.3,0-.5,0h-.5c-.6,0-1.1,0-1.8-.1s-1.2-.3-1.8-.5c-.6-.2-1.2-.6-1.7-.9-.5-.4-.9-.9-1.3-1.5-.5-.8-.8-1.7-.8-2.8v-.2c0-1,.2-1.9.6-2.6.4-.7.9-1.3,1.7-1.8ZM267.5,221.9c-.3,0-.7-.1-1.2-.2-.4,0-.9,0-1.3,0s-.7,0-1.1,0c-.3,0-.7.1-1,.2-.7.2-1.2.5-1.5,1-.1.2-.2.3-.3.5s-.1.4-.2.7c0,0,0,.2,0,.4,0,.3,0,.6.1.9,0,.3.2.6.5.9.2.3.5.5.9.7.4.2,1,.3,1.7.3s.4,0,.5,0c.7,0,1.4-.2,2-.6.3-.2.5-.4.7-.6s.3-.5.5-.7c.3-.5.5-1,.6-1.6.1-.5.2-1,.2-1.5,0,0,0,0,0,0,0,0,0,0,0,0-.1,0-.2,0-.4,0-.1,0-.3,0-.5-.1Z"/>
      <path class="cls-6" d="M284.2,226.5c0,.7,0,1.3-.2,1.9-.1.5-.4.9-.8,1.4-.4.4-1,.7-1.9.7-.8,0-1.5,0-2.2-.3-.6-.3-1.1-.6-1.5-1.1-.4-.5-.7-1-.9-1.6s-.3-1.3-.3-1.9v-19.5c0-.8,0-1.4,0-1.9,0-.5,0-.9,0-1.2,0-.3,0-.6,0-.8,1.7,0,2.9.3,3.8,1,.9.7,1.3,1.8,1.3,3.4v18.4c0,.6.1,1.1.4,1.4.2.3.5.4.8.5.3,0,.6,0,1,0s.5-.3.7-.5Z"/>
      <path class="cls-6" d="M302,226.3c.3.2.6.5.9,1h.1c0,.1-.1.2-.1.2-.9,1-1.9,1.7-3.1,2.3-1.2.5-2.5.8-3.9.8s-2.4-.2-3.5-.7-2-1.2-2.9-2.1c-.8-.9-1.4-1.9-1.9-3s-.7-2.4-.7-3.7.2-2.6.6-3.7c.4-1.2,1-2.2,1.8-3.1.8-.9,1.7-1.5,2.8-2,1.1-.5,2.3-.8,3.7-.8s1.6.1,2.5.3c.9.2,1.7.6,2.5,1.1.8.5,1.4,1.1,1.9,1.9.5.8.8,1.8.8,2.9s-.3,2-.8,2.7c-.6.7-1.2,1.2-2,1.6s-1.6.7-2.5.8c-.9.1-1.6.2-2.3.2-1,0-1.8,0-2.6-.2-.7-.1-1.2-.2-1.5-.3.1,1,.3,1.7.6,2.3.3.6.7,1.1,1.1,1.4s.8.6,1.2.7c.4.1.8.2,1.1.2.6,0,1.1,0,1.6-.2.5-.1,1-.2,1.4-.4.4-.1.8-.3,1.1-.4.4-.1.7-.2,1.1-.2s.7,0,1,.3ZM295.8,214.8c-.3,0-.6.1-1,.2-.4.1-.8.3-1.2.7-.4.3-.7.8-1.1,1.4-.3.6-.5,1.3-.7,2.2.4.1,1,.3,1.8.4s1.6.1,2.4,0c.8,0,1.5-.3,2.1-.7.6-.4.9-1,1-1.9,0-.7-.2-1.2-.8-1.7-.6-.5-1.4-.7-2.5-.6Z"/>
      <path class="cls-6" d="M333.4,221c0,1.3-.2,2.5-.6,3.7s-1,2.2-1.8,3.1c-.8.9-1.7,1.5-2.8,2-1.1.5-2.3.8-3.7.8s-2.4-.3-3.5-.8c-1.1-.5-2-1.2-2.9-2-.8-.9-1.4-1.9-1.9-3s-.7-2.4-.7-3.7.2-2.6.6-3.7c.4-1.2,1-2.2,1.8-3.1.8-.9,1.7-1.5,2.8-2,1.1-.5,2.3-.8,3.7-.8s2.9.3,4.1,1v-5.6c0-1.6.4-2.7,1.3-3.4.9-.7,2.1-1,3.8-1,0,.2,0,.4,0,.7,0,.3,0,.7,0,1.2s0,1.2,0,2v14.8ZM324.4,227.1c.3,0,.8,0,1.2-.2.5-.2.9-.5,1.3-.9.4-.4.8-1.1,1.1-1.9.3-.8.4-1.9.4-3.1s-.1-2.3-.4-3.1c-.3-.8-.7-1.4-1.1-1.9-.4-.4-.9-.7-1.3-.9-.5-.2-.9-.2-1.2-.2s-.8,0-1.2.2-.9.5-1.3.9c-.4.4-.8,1.1-1.1,1.9s-.4,1.9-.4,3.1.1,2.3.4,3.1.7,1.4,1.1,1.9c.4.4.9.7,1.3.9s.9.2,1.2.2Z"/>
      <path class="cls-6" d="M351.6,226.3c.3.2.6.5.9,1h.1c0,.1-.1.2-.1.2-.9,1-1.9,1.7-3.1,2.3-1.2.5-2.5.8-3.9.8s-2.4-.2-3.5-.7-2-1.2-2.9-2.1c-.8-.9-1.4-1.9-1.9-3s-.7-2.4-.7-3.7.2-2.6.6-3.7c.4-1.2,1-2.2,1.8-3.1.8-.9,1.7-1.5,2.8-2,1.1-.5,2.3-.8,3.7-.8s1.6.1,2.5.3c.9.2,1.7.6,2.5,1.1.8.5,1.4,1.1,1.9,1.9.5.8.8,1.8.8,2.9s-.3,2-.8,2.7c-.6.7-1.2,1.2-2,1.6s-1.6.7-2.5.8c-.9.1-1.6.2-2.3.2-1,0-1.8,0-2.6-.2-.7-.1-1.2-.2-1.5-.3.1,1,.3,1.7.6,2.3.3.6.7,1.1,1.1,1.4s.8.6,1.2.7c.4.1.8.2,1.1.2.6,0,1.1,0,1.6-.2.5-.1,1-.2,1.4-.4.4-.1.8-.3,1.1-.4.4-.1.7-.2,1.1-.2s.7,0,1,.3ZM345.5,214.8c-.3,0-.6.1-1,.2-.4.1-.8.3-1.2.7-.4.3-.7.8-1.1,1.4-.3.6-.5,1.3-.7,2.2.4.1,1,.3,1.8.4s1.6.1,2.4,0c.8,0,1.5-.3,2.1-.7.6-.4.9-1,1-1.9,0-.7-.2-1.2-.8-1.7-.6-.5-1.4-.7-2.5-.6Z"/>
      <path class="cls-6" d="M364.9,225.5c0-.5,0-.8-.4-1.1-.3-.3-.7-.6-1.3-.9s-1.2-.6-2-.9c-.8-.3-1.6-.7-2.4-1.3-.6-.4-1.2-.8-1.6-1.3-.4-.5-.7-1.1-.9-1.7-.2-.6-.3-1.2-.2-1.8,0-.6.2-1.2.4-1.9.3-.6.6-1.1,1-1.5s.9-.7,1.4-1c.5-.3,1-.4,1.6-.5s1-.2,1.5-.2h.5c1.4,0,2.7.4,3.9,1,1.2.6,2.2,1.4,3,2.4h.1c0,.1-.1.3-.1.3-.3.4-.6.7-.9.8-.3.2-.6.3-1,.3s-.7,0-1.1-.2c-.3-.1-.7-.3-1.1-.5-.5-.2-1-.4-1.4-.5-.4-.1-.9-.2-1.3-.2s-1,.1-1.3.4c-.3.3-.5.6-.5.9,0,.5.1.9.5,1.3.4.3.9.6,1.6.9.8.3,1.7.7,2.6,1.1.9.4,1.8.9,2.5,1.5.7.6,1.3,1.3,1.6,2.2.4.8.4,1.9.1,3.1-.1.5-.4,1-.7,1.5-.3.5-.8,1-1.3,1.4-.6.4-1.3.8-2.1,1.1-.8.3-1.8.4-2.9.4s-.4,0-.5,0c-1.3,0-2.5-.4-3.8-1-1.2-.6-2.3-1.4-3.1-2.4h-.1c0-.1.1-.3.1-.3.1-.2.3-.4.4-.5.2-.1.3-.3.4-.4.3-.2.6-.2,1-.2s.7,0,1.1.2c.3.1.7.3,1.1.5.4.2.8.3,1.3.5.5.1,1,.2,1.5.3,1,0,1.6-.2,2.1-.6.4-.4.6-.7.7-1.1Z"/>
      <path class="cls-6" d="M390.6,214.8c-.3,0-.8,0-1.2.2s-.9.5-1.3.9c-.4.4-.8,1.1-1.1,1.9s-.4,1.9-.4,3.1.1,2.3.4,3.1.7,1.4,1.1,1.9c.4.4.9.7,1.3.9s.9.2,1.2.2c.6,0,1.1,0,1.6-.2.5-.1,1-.2,1.4-.4.4-.2.8-.3,1.1-.4.4-.1.7-.2,1.1-.2s.7,0,1,.3c.3.2.6.5.9.9v.2c0,0,0,.1,0,.1-.9,1-1.9,1.7-3.1,2.3-1.2.5-2.5.8-3.9.8s-2.4-.3-3.5-.8c-1.1-.5-2-1.2-2.9-2-.8-.9-1.4-1.9-1.9-3s-.7-2.4-.7-3.7.2-2.6.6-3.7c.4-1.2,1-2.2,1.8-3.1.8-.9,1.7-1.5,2.8-2,1.1-.5,2.3-.8,3.7-.8s2.7.3,3.9.8c1.2.5,2.3,1.3,3.1,2.3h.1c0,.1-.1.3-.1.3-.3.5-.6.8-.9.9-.3.2-.7.3-1,.3-.3,0-.7,0-1.1-.2s-.7-.2-1.1-.4c-.4-.2-.9-.3-1.4-.4-.5-.1-1-.2-1.6-.2Z"/>
      <path class="cls-6" d="M418,221.9c0,1.8-.3,3.2-.8,4.4-.5,1.1-1.2,2-2.1,2.6-.8.6-1.8,1.1-2.8,1.3s-2.1.4-3.1.4-2-.1-3.1-.4-2-.7-2.8-1.3c-.8-.6-1.5-1.5-2-2.6-.5-1.1-.8-2.6-.8-4.4v-5.6c0-1.6.5-2.7,1.3-3.4.9-.7,2.1-1,3.8-1,0,.2,0,.4,0,.7,0,.3,0,.7,0,1.2,0,.5,0,1.2,0,2v6.2c0,1.1.1,2,.4,2.7.2.7.5,1.2.9,1.6.4.4.8.6,1.2.8.4.1.9.2,1.3.2s.9,0,1.3-.2c.4-.1.8-.4,1.2-.8.4-.4.6-.9.9-1.6s.3-1.6.3-2.7v-5.6c0-1.6.5-2.7,1.4-3.4.9-.7,2.1-1,3.8-1,0,.2,0,.4,0,.7,0,.3,0,.7,0,1.2,0,.5,0,1.2,0,2v6.2Z"/>
      <path class="cls-6" d="M429.5,226.5c0,.7,0,1.3-.2,1.9-.1.5-.4.9-.8,1.4-.4.4-1,.7-1.9.7-.8,0-1.5,0-2.2-.3-.6-.3-1.1-.6-1.5-1.1-.4-.5-.7-1-.9-1.6s-.3-1.3-.3-1.9v-19.5c0-.8,0-1.4,0-1.9,0-.5,0-.9,0-1.2,0-.3,0-.6,0-.8,1.7,0,2.9.3,3.8,1,.9.7,1.3,1.8,1.3,3.4v18.4c0,.6.1,1.1.4,1.4.2.3.5.4.8.5.3,0,.6,0,1,0s.5-.3.7-.5Z"/>
      <path class="cls-6" d="M443.3,226.6c0,0,0,.2,0,.3,0,.2,0,.4,0,.6,0,.5-.1.9-.3,1.3-.2.4-.5.7-.9,1-.7.5-1.7.8-2.7.8s-1.7-.2-2.6-.6c-.9-.4-1.6-1-2.3-1.8-.7-.8-1.2-1.8-1.7-3-.4-1.2-.6-2.6-.6-4.2v-11.6c0-1.6.5-2.7,1.3-3.4.9-.7,2.1-1,3.7-1,0,.2,0,.4,0,.8,0,.3,0,.7,0,1.2,0,.5,0,1.1,0,1.9v2.5h5.4c0,1.2-.3,2.2-1,2.9-.7.7-1.6,1.1-2.8,1.1h-1.5v5.7c0,1.1,0,2.1.3,2.8s.5,1.4.8,1.9c.7.9,1.7,1.4,2.8,1.4s1,0,1.4-.2c.3,0,.5-.2.8-.2Z"/>
      <path class="cls-6" d="M459.9,226.3c.3.2.6.5.9,1h.1c0,.1-.1.2-.1.2-.9,1-1.9,1.7-3.1,2.3-1.2.5-2.5.8-3.9.8s-2.4-.2-3.5-.7c-1.1-.5-2-1.2-2.9-2.1-.8-.9-1.4-1.9-1.9-3s-.7-2.4-.7-3.7.2-2.6.6-3.7c.4-1.2,1-2.2,1.8-3.1.8-.9,1.7-1.5,2.8-2,1.1-.5,2.3-.8,3.7-.8s1.6.1,2.5.3c.9.2,1.7.6,2.5,1.1.8.5,1.4,1.1,1.9,1.9.5.8.8,1.8.8,2.9s-.3,2-.8,2.7c-.6.7-1.2,1.2-2,1.6s-1.6.7-2.5.8c-.9.1-1.6.2-2.3.2-1,0-1.8,0-2.6-.2-.7-.1-1.2-.2-1.5-.3.1,1,.3,1.7.6,2.3.3.6.7,1.1,1.1,1.4s.8.6,1.2.7c.4.1.8.2,1.1.2.6,0,1.1,0,1.6-.2.5-.1,1-.2,1.4-.4.4-.1.8-.3,1.1-.4.4-.1.7-.2,1.1-.2s.7,0,1,.3ZM453.8,214.8c-.3,0-.6.1-1,.2-.4.1-.8.3-1.2.7-.4.3-.7.8-1.1,1.4-.3.6-.5,1.3-.7,2.2.4.1,1,.3,1.8.4s1.6.1,2.4,0c.8,0,1.5-.3,2.1-.7.6-.4.9-1,1-1.9,0-.7-.2-1.2-.8-1.7-.6-.5-1.4-.7-2.5-.6Z"/>
      <path class="cls-6" d="M473.2,225.5c0-.5,0-.8-.4-1.1-.3-.3-.7-.6-1.3-.9-.6-.3-1.2-.6-2-.9-.8-.3-1.6-.7-2.4-1.3-.6-.4-1.2-.8-1.6-1.3-.4-.5-.7-1.1-.9-1.7-.2-.6-.3-1.2-.2-1.8,0-.6.2-1.2.4-1.9.3-.6.6-1.1,1-1.5s.9-.7,1.4-1c.5-.3,1-.4,1.6-.5s1-.2,1.5-.2h.5c1.4,0,2.7.4,3.9,1,1.2.6,2.2,1.4,3,2.4h.1c0,.1-.1.3-.1.3-.3.4-.6.7-.9.8-.3.2-.6.3-1,.3s-.7,0-1.1-.2c-.3-.1-.7-.3-1.1-.5-.5-.2-1-.4-1.4-.5-.4-.1-.9-.2-1.3-.2s-1,.1-1.3.4c-.3.3-.5.6-.5.9,0,.5.1.9.5,1.3.4.3.9.6,1.6.9.8.3,1.7.7,2.6,1.1.9.4,1.8.9,2.5,1.5.7.6,1.3,1.3,1.6,2.2.4.8.4,1.9.1,3.1-.1.5-.4,1-.7,1.5-.3.5-.8,1-1.3,1.4-.6.4-1.3.8-2.1,1.1-.8.3-1.8.4-2.9.4s-.4,0-.5,0c-1.3,0-2.5-.4-3.8-1-1.2-.6-2.3-1.4-3.1-2.4h-.1c0-.1.1-.3.1-.3.1-.2.3-.4.4-.5.2-.1.3-.3.4-.4.3-.2.6-.2,1-.2s.7,0,1.1.2c.3.1.7.3,1.1.5.4.2.8.3,1.3.5.5.1,1,.2,1.5.3,1,0,1.6-.2,2.1-.6.4-.4.6-.7.7-1.1Z"/>
    </g>
  </g>
  <g id="cavimac">
    <g>
      <g class="cls-56">
        <g class="cls-56">
          <g class="cls-13">
            <g class="cls-56">
              <path class="cls-4" d="M54,92l1.7,1.8c1,1,1.7,1.8,2,2.4l-1.7-1.8c-.3-.6-1-1.4-2-2.4"/>
            </g>
          </g>
        </g>
        <g class="cls-56">
          <g class="cls-14">
            <g class="cls-56">
              <path class="cls-4" d="M56,94.4l1.7,1.8c-.2.4-.5.8-.8,1.2l-1.7-1.8c.3-.4.5-.8.8-1.2"/>
            </g>
          </g>
        </g>
        <g class="cls-56">
          <g class="cls-17">
            <g class="cls-56">
              <path class="cls-4" d="M55.2,95.6l1.7,1.8c-.2.4-.5.7-.8,1.1-.3.3-.7.6-1,.7l-1.7-1.8c.4-.1.7-.4,1-.7.3-.3.6-.7.8-1.1"/>
            </g>
          </g>
        </g>
        <g class="cls-56">
          <g class="cls-16">
            <g class="cls-56">
              <path class="cls-4" d="M53.4,97.4l1.7,1.8c-.8.5-1.7.8-2.7.8-1,0-1.9-.2-2.8-.5-.9-.3-1.8-.7-2.8-1.1-1-.4-2.3-.7-3.7-1.1-1.4-.3-3.2-.5-5.3-.5-2.8,0-5.5.5-8.2,1.7-2.7,1.2-5.1,3-7.2,5.4-2.2,2.4-3.9,5.5-5.2,9.3-1.3,3.8-2,8.3-2,13.5,0,5.3.5,9.8,1.8,13.6,1.2,3.8,2.9,6.9,5,9.4.4.5.8.9,1.2,1.4l-1.7-1.8c-.4-.4-.8-.9-1.2-1.4-2.1-2.5-3.8-5.6-5-9.4-1.2-3.8-1.8-8.3-1.8-13.6,0-5.2.7-9.7,2-13.5,1.3-3.8,3.1-6.9,5.2-9.3,2.2-2.4,4.6-4.2,7.2-5.4,2.7-1.2,5.4-1.7,8.2-1.7,2.1,0,3.9.2,5.3.5,1.4.3,2.6.7,3.7,1.1,1,.4,2,.7,2.8,1.1.8.3,1.8.5,2.8.5,1,0,1.9-.2,2.7-.8"/>
            </g>
          </g>
        </g>
        <g class="cls-56">
          <g class="cls-15">
            <g class="cls-56">
              <path class="cls-4" d="M54,154l1.7,1.8c.3.3.5.6.7.8l-1.7-1.8c-.2-.3-.4-.6-.7-.8"/>
            </g>
          </g>
        </g>
        <g class="cls-56">
          <g class="cls-21">
            <g class="cls-56">
              <path class="cls-4" d="M54.7,154.8l1.7,1.8c.3.4.5.8.7,1.2l-1.7-1.8c-.2-.4-.5-.8-.7-1.2"/>
            </g>
          </g>
        </g>
        <g class="cls-56">
          <g class="cls-20">
            <g class="cls-56">
              <path class="cls-4" d="M55.4,156l1.7,1.8c-.4.7-1,1.5-2,2.5-1,1-2.3,1.9-4,2.9-1.7.9-3.7,1.7-5.9,2.4-2.3.7-4.9,1-7.9,1-4.7,0-9.2-.9-13.6-2.7-4.4-1.7-8.3-4.3-11.6-7.6,0,0,0,0-.1-.1l-1.7-1.8s0,0,.1.1c3.3,3.4,7.2,5.9,11.6,7.6,4.4,1.7,8.9,2.6,13.6,2.7,3,0,5.6-.3,7.9-1,2.3-.7,4.3-1.5,5.9-2.4,1.7-.9,3-1.9,4-2.9,1-1,1.7-1.8,2-2.5"/>
            </g>
          </g>
        </g>
        <path class="cls-1" d="M36.2,85.4c3,0,5.6.4,7.9,1.1,2.3.7,4.2,1.6,5.9,2.5,1.7,1,3,2,4,3,1,1,1.7,1.8,2,2.4-.2.4-.5.8-.8,1.2-.2.4-.5.7-.8,1.1-.3.3-.7.6-1,.7-.8.5-1.7.8-2.7.8-1,0-1.9-.2-2.8-.5-.9-.3-1.8-.7-2.8-1.1-1-.4-2.3-.7-3.7-1.1-1.4-.3-3.2-.5-5.3-.5-2.8,0-5.5.5-8.2,1.7-2.7,1.2-5.1,3-7.2,5.4-2.2,2.4-3.9,5.5-5.2,9.3-1.3,3.8-2,8.3-2,13.5,0,5.3.5,9.8,1.8,13.6,1.2,3.8,2.9,6.9,5,9.4,2.1,2.5,4.5,4.3,7.1,5.6,2.7,1.2,5.4,1.8,8.1,1.8,2.1,0,3.9-.1,5.3-.4,1.4-.3,2.7-.7,3.7-1,1-.4,2-.7,2.8-1,.8-.3,1.8-.5,2.8-.5,1,0,1.9.3,2.7.8.8.6,1.4,1.2,1.8,1.8.3.4.5.8.7,1.2-.4.7-1,1.5-2,2.5-1,1-2.3,1.9-4,2.9-1.7.9-3.7,1.7-5.9,2.4-2.3.7-4.9,1-7.9,1-4.7,0-9.2-.9-13.6-2.7-4.4-1.7-8.3-4.3-11.6-7.6-3.3-3.4-6-7.5-8-12.5-2-5-3-10.7-2.9-17.2,0-6.5,1.2-12.2,3.3-17.2,2.1-4.9,4.9-9.1,8.3-12.4,3.4-3.3,7.3-5.8,11.8-7.4,4.4-1.6,9-2.4,13.7-2.4Z"/>
      </g>
      <g class="cls-56">
        <g class="cls-56">
          <g class="cls-18">
            <g class="cls-56">
              <path class="cls-4" d="M95.7,100.7l1.7,1.8c-1.2,2.9-2.4,6-3.6,9.3-1.1,2.8-2.3,6-3.6,9.5-1.3,3.5-2.7,7.1-4.2,10.8l-1.7-1.8c1.5-3.7,2.8-7.3,4.2-10.8,1.3-3.5,2.5-6.7,3.6-9.5,1.2-3.2,2.4-6.3,3.6-9.3"/>
            </g>
          </g>
        </g>
        <g class="cls-56">
          <g class="cls-19">
            <g class="cls-56">
              <path class="cls-11" d="M126.8,87.9l1.7,1.8c.1.1.2.2.3.4,1.6,2.1,1.2,1.4,2,3.2l-1.7-1.8c-.8-1.7-.4-1.1-2-3.2-.1-.1-.2-.3-.3-.4"/>
            </g>
          </g>
        </g>
        <g class="cls-56">
          <g class="cls-22">
            <g class="cls-56">
              <path class="cls-4" d="M64.6,164.2l1.7,1.8c-.5,0-1.1,0-1.6,0-1.4,0-2.9-.2-4.5-.7l-1.7-1.8c1.6.4,3,.7,4.5.7.5,0,1.1,0,1.6,0"/>
            </g>
          </g>
        </g>
        <g class="cls-56">
          <g class="cls-49">
            <g class="cls-56">
              <path class="cls-4" d="M80.1,141.1l1.7,1.8c-1.6,4.1-3,7.6-4.2,10.6-1.2,3-2,5-2.4,6.1-1,2.4-2.4,4-4,4.9-1.6.9-3.3,1.4-4.9,1.5l-1.7-1.8c1.6-.1,3.3-.6,4.9-1.5,1.6-.9,3-2.5,4-4.8.4-1,1.2-3.1,2.4-6.1,1.2-3,2.6-6.6,4.2-10.6"/>
            </g>
          </g>
        </g>
        <polygon class="cls-7" points="129.2 91.4 130.9 93.2 136.4 106.5 134.7 104.7 129.2 91.4"/>
        <polygon class="cls-12" points="110.4 141.4 112.2 143.2 81.9 142.9 80.1 141.1 110.4 141.4"/>
        <g class="cls-56">
          <g class="cls-54">
            <g class="cls-56">
              <path class="cls-11" d="M134.7,104.7l1.7,1.8c1,2.4,10,23.9,16.7,30.7l-1.7-1.8c-6.7-6.8-15.8-28.3-16.7-30.7"/>
            </g>
          </g>
        </g>
        <g class="cls-56">
          <g class="cls-48">
            <g class="cls-56">
              <path class="cls-4" d="M125.5,164.7l1.7,1.8c-1.6-.2-3.3-.7-4.9-1.6-.6-.3-1.1-.7-1.6-1.2l-1.7-1.8c.5.5,1,.9,1.6,1.2,1.7.9,3.3,1.4,4.9,1.6"/>
            </g>
          </g>
        </g>
        <g class="cls-56">
          <g class="cls-47">
            <g class="cls-56">
              <path class="cls-4" d="M101.5,88.3l1.7,1.8c.5.6,1.1,1.2,1.7,2,.9,1.2,1.7,2.9,2.5,5,.5,1.3,1.3,3.6,2.5,6.8,1.2,3.2,2.6,7,4.2,11.2,1.6,4.2,3.3,8.7,5,13.4,1.8,4.7,3.4,9.1,5,13.4,1.6,4.2,3,8,4.2,11.2,1.2,3.3,2.1,5.6,2.5,6.9.3.7.6,1.4.8,2.1.3.7.5,1.3.7,1.9l-1.7-1.8c-.2-.6-.5-1.2-.7-1.9-.3-.7-.6-1.4-.8-2.1-.5-1.3-1.3-3.6-2.5-6.9-1.2-3.3-2.6-7-4.2-11.2-1.6-4.2-3.3-8.7-5-13.4-1.8-4.7-3.5-9.1-5-13.4-1.6-4.2-3-8-4.2-11.2-1.2-3.2-2.1-5.5-2.5-6.8-.8-2.1-1.6-3.7-2.5-5-.6-.8-1.1-1.5-1.7-2"/>
            </g>
          </g>
        </g>
        <g class="cls-56">
          <g class="cls-46">
            <g class="cls-56">
              <path class="cls-4" d="M130.8,162.2l1.7,1.8c.3.7.5,1.3.7,2l-1.7-1.8c-.2-.7-.5-1.3-.7-2"/>
            </g>
          </g>
        </g>
        <g class="cls-56">
          <g class="cls-50">
            <g class="cls-56">
              <path class="cls-4" d="M131.5,164.2l1.7,1.8c-1.6.4-3.1.6-4.5.6-.5,0-1.1,0-1.6-.1l-1.7-1.8c.5,0,1.1.1,1.6.1,1.4,0,2.9-.2,4.5-.6"/>
            </g>
          </g>
        </g>
        <path class="cls-1" d="M130.8,162.2c.3.7.5,1.3.7,2-1.6.4-3.1.6-4.5.6-.5,0-1.1,0-1.6-.1-1.6-.2-3.3-.7-4.9-1.6-1.7-.9-2.9-2.5-3.8-4.9-.4-1-1.2-3.1-2.3-6.1-1.1-3-2.4-6.6-3.9-10.7l-30.3-.3c-1.6,4.1-3,7.6-4.2,10.6-1.2,3-2,5-2.4,6.1-1,2.4-2.4,4-4,4.8-1.6.9-3.3,1.4-4.9,1.5-.5,0-1.1,0-1.6,0-1.4,0-2.9-.2-4.5-.7.2-.7.5-1.3.8-2,.2-.6.5-1.2.7-1.9.2-.7.6-1.4.9-2.1.5-1.3,1.4-3.6,2.7-6.9,1.3-3.2,2.7-7,4.4-11.2,1.7-4.2,3.4-8.6,5.3-13.3,1.9-4.6,3.6-9.1,5.2-13.3,1.6-4.2,3.1-7.9,4.4-11.1,1.3-3.2,2.2-5.5,2.7-6.8.8-2.1,1.7-3.7,2.6-4.9.9-1.2,1.8-2.2,2.6-2.8.9-.7,1.7-1.1,2.5-1.3.8-.2,1.6-.3,2.3-.2.7,0,1.5.1,2.3.3.8.2,1.6.6,2.5,1.3.8.7,1.7,1.6,2.6,2.9.9,1.2,1.7,2.9,2.5,5,.5,1.3,1.3,3.6,2.5,6.8,1.2,3.2,2.6,7,4.2,11.2,1.6,4.2,3.3,8.7,5,13.4,1.8,4.7,3.4,9.1,5,13.4,1.6,4.2,3,8,4.2,11.2,1.2,3.3,2.1,5.6,2.5,6.9.3.7.6,1.4.8,2.1.3.7.5,1.3.7,1.9ZM84.3,130.2l22.2.2c-1.4-3.7-2.7-7.3-4.1-10.9-1.3-3.5-2.5-6.7-3.4-9.5-1.2-3.3-2.4-6.4-3.3-9.3-1.2,2.9-2.4,6-3.6,9.3-1.1,2.8-2.3,6-3.6,9.5-1.3,3.5-2.7,7.1-4.2,10.8"/>
        <path class="cls-1" d="M162.9,97c8.5,0,15.2,9.1,15.1,20.2-.1,11.1-7,20-15.5,19.9-8.4,0-15.2-9.1-15.1-20.2.1-11.1,7-20,15.5-19.9Z"/>
        <g class="cls-56">
          <g class="cls-52">
            <g class="cls-56">
              <path class="cls-4" d="M172.1,101.2l1.7,1.8c3.6,3.7,5.9,9.5,5.9,16-.1,11.1-7,20-15.5,19.9-3.5,0-6.7-1.6-9.2-4.2l-1.7-1.8c2.5,2.6,5.7,4.1,9.2,4.2,8.5,0,15.4-8.9,15.5-19.9,0-6.5-2.2-12.3-5.9-16"/>
            </g>
          </g>
        </g>
        <g class="cls-56">
          <g class="cls-51">
            <g class="cls-56">
              <path class="cls-11" d="M203,83.8l1.7,1.8c.4.4.7.9.9,1.3.6,1.4,0,8.8-1.4,15.3,0,.4-2,8.6-4.8,18l-1.7-1.8c2.9-9.5,4.7-17.6,4.8-18,1.4-6.5,2-13.9,1.4-15.3-.2-.4-.5-.9-.9-1.3"/>
            </g>
          </g>
        </g>
        <path class="cls-5" d="M200.6,82.6c1.6,0,2.9,1.5,3.3,2.4.6,1.4,0,8.8-1.4,15.3,0,.4-2,8.6-4.8,18-.3,1.3-5.9,26.3-12.4,36.7-3.5,5.6-7.7,8-10.1,9.3-1.9,1-7.3,2.9-12.7,2.8-1.5,0-3-.2-4.4-.5-6.3-1.7-11.1-4-15.2-11.1-4-6.8-14-35.3-15.6-41.5-1.6-6.3-6.3-19.2-5.1-23.4.7-2.5,1.8-3.6,2.9-3.5.7,0,1.4.4,2,1.2,1.6,2.1,1.2,1.4,2,3.2l5.5,13.3c1,2.4,10,23.9,16.7,30.7,0,0,1.3,1.2,4,3.5.2.2,3.7,2.7,8.2,2.8,2.1,0,4.3-.5,6.6-2,7.3-4.8,12.5-14.9,12.5-15.3,0-.4,9-20.8,11.3-29,2.3-8.1,3.1-10.8,4.4-11.9.8-.6,1.5-.9,2.2-.9Z"/>
        <g class="cls-56">
          <g class="cls-55">
            <g class="cls-56">
              <path class="cls-11" d="M197.7,118.4l1.7,1.8c-.3,1.3-5.9,26.3-12.4,36.7-3.5,5.6-7.7,8-10.1,9.3-1.9,1-7.3,2.9-12.7,2.8-1.5,0-3-.2-4.4-.5-4.4-1.2-8.2-2.7-11.4-6l-1.7-1.8c3.3,3.3,7,4.9,11.4,6,1.4.4,2.9.5,4.4.5,5.3,0,10.7-1.8,12.7-2.8,2.5-1.2,6.6-3.7,10.1-9.3,6.5-10.4,12.1-35.3,12.4-36.7"/>
            </g>
          </g>
        </g>
      </g>
      <g class="cls-56">
        <g class="cls-56">
          <g class="cls-53">
            <g class="cls-56">
              <path class="cls-4" d="M221.7,88.1l1.7,1.8c0,.4-.2,1.1-.2,2l-1.7-1.8c0-.9.1-1.6.2-2"/>
            </g>
          </g>
        </g>
        <g class="cls-56">
          <g class="cls-23">
            <g class="cls-56">
              <path class="cls-4" d="M221.4,90.1l1.7,1.8c0,.8-.1,1.9-.2,3.3,0,1.4,0,3.2-.1,5.4l-1.7-1.8c0-2.2,0-4,.1-5.4,0-1.4.1-2.5.2-3.3"/>
            </g>
          </g>
        </g>
        <polygon class="cls-8" points="221.1 98.7 222.9 100.5 222.1 154.5 220.4 152.8 221.1 98.7"/>
        <g class="cls-56">
          <g class="cls-24">
            <g class="cls-56">
              <path class="cls-4" d="M220.4,152.8l1.7,1.8c0,4.4-1.2,7.6-3.5,9.5-2.3,1.9-5.6,2.8-9.9,2.8l-1.7-1.8c4.3,0,7.6-.9,9.9-2.8,2.3-1.9,3.5-5.1,3.5-9.5"/>
            </g>
          </g>
        </g>
        <path class="cls-1" d="M221.7,88.1c0,.4-.2,1.1-.2,2,0,.8-.1,1.9-.2,3.3,0,1.4,0,3.2-.1,5.4l-.8,54c0,4.4-1.2,7.6-3.5,9.5-2.3,1.9-5.6,2.8-9.9,2.8,0-.4.1-1.1.2-2,0-.8.1-1.9.1-3.3,0-1.4,0-3.2.2-5.4l.5-54c0-4.4,1.2-7.6,3.6-9.5,2.3-1.9,5.7-2.8,10.1-2.7Z"/>
      </g>
      <g class="cls-56">
        <g class="cls-56">
          <g class="cls-27">
            <g class="cls-56">
              <path class="cls-4" d="M251,93.6l1.7,1.8c1.1,1.2,2.2,2.6,3.2,4.2,1.5,2.3,2.8,5.3,4.1,8.7l-1.7-1.8c-1.2-3.5-2.6-6.4-4.1-8.7-1-1.6-2.1-3-3.2-4.2"/>
            </g>
          </g>
        </g>
        <g class="cls-56">
          <g class="cls-26">
            <g class="cls-56">
              <path class="cls-4" d="M258.3,106.5l1.7,1.8c0,.3.3.9.6,1.8.3.9.7,2,1.1,3.2.4,1.3.9,2.6,1.3,4.1.5,1.5,1,3,1.5,4.6,1.2,3.6,2.4,7.5,3.8,11.9l-1.7-1.8c-1.4-4.4-2.7-8.4-3.8-11.9-.5-1.6-1-3.1-1.5-4.6-.5-1.5-.9-2.9-1.3-4.1-.4-1.3-.8-2.3-1.1-3.2-.3-.9-.5-1.5-.6-1.8"/>
            </g>
          </g>
        </g>
        <polygon class="cls-8" points="244.4 101.3 246.1 103 246 156.4 244.3 154.7 244.4 101.3"/>
        <g class="cls-56">
          <g class="cls-25">
            <g class="cls-56">
              <path class="cls-4" d="M244.6,165.4l1.7,1.8c-4.4,0-7.8-1-10.1-2.9-.2-.2-.4-.3-.6-.5l-1.7-1.8c.2.2.4.4.6.5,2.3,1.9,5.6,2.9,10.1,2.9"/>
            </g>
          </g>
        </g>
        <g class="cls-56">
          <g class="cls-28">
            <g class="cls-56">
              <path class="cls-4" d="M244.3,154.7l1.7,1.8c0,2.2,0,4,0,5.4,0,1.4,0,2.5.1,3.3,0,.9.1,1.6.2,2l-1.7-1.8c0-.4-.1-1.1-.2-2,0-.8-.1-1.9-.1-3.3,0-1.4,0-3.2,0-5.4"/>
            </g>
          </g>
        </g>
        <g class="cls-56">
          <g class="cls-34">
            <g class="cls-56">
              <path class="cls-4" d="M289.3,101.7l1.7,1.8c-2,6-4,11.5-5.9,16.7-.8,2.2-1.6,4.5-2.5,6.8-.8,2.3-1.6,4.5-2.4,6.6-.8,2.1-1.5,4-2.1,5.7-.7,1.7-1.2,3.1-1.8,4.3-1.1,2.4-2.5,4.1-4.1,5-1.6.9-3.2,1.4-4.7,1.6-.3,0-.7,0-1,0-1.5,0-2.9-.3-4.4-.9l-1.7-1.8c1.5.6,3,.8,4.4.9.3,0,.7,0,1,0,1.5-.1,3.1-.7,4.7-1.6,1.6-.9,3-2.6,4.1-5,.5-1.1,1.1-2.5,1.8-4.3.7-1.7,1.4-3.6,2.1-5.7.8-2.1,1.6-4.3,2.4-6.6.8-2.3,1.7-4.6,2.5-6.8,1.9-5.2,3.9-10.7,5.9-16.7"/>
            </g>
          </g>
        </g>
        <polygon class="cls-8" points="302.1 89.7 303.8 91.4 303 156.9 301.2 155.1 302.1 89.7"/>
        <g class="cls-56">
          <g class="cls-32">
            <g class="cls-56">
              <path class="cls-4" d="M301.2,155.1l1.7,1.8c0,2.2,0,4,0,5.4,0,1.4,0,2.5.1,3.3,0,.9.1,1.6.2,2l-1.7-1.8c0-.4-.1-1.1-.2-2,0-.8-.1-1.9-.1-3.3,0-1.4,0-3.2,0-5.4"/>
            </g>
          </g>
        </g>
        <path class="cls-1" d="M296.4,88.7c.8,0,1.5,0,2.1.1.6,0,1.2.2,1.6.2.6.2,1.1.3,1.5.3l.4.2-.9,65.5c0,2.2,0,4,0,5.4,0,1.4,0,2.5.1,3.3,0,.9.1,1.6.2,2-4.3,0-7.7-1-10-2.9-2.3-1.9-3.5-5.1-3.4-9.5l1.2-51.8c-2,6-4,11.5-5.9,16.7-.8,2.2-1.6,4.5-2.5,6.8-.8,2.3-1.6,4.5-2.4,6.6-.8,2.1-1.5,4-2.1,5.7-.7,1.7-1.2,3.1-1.8,4.3-1.1,2.4-2.5,4.1-4.1,5-1.6.9-3.2,1.4-4.7,1.6-.3,0-.7,0-1,0-1.5,0-2.9-.3-4.4-.9l-16-46.2v53.4c-.1,2.2-.1,4-.1,5.4,0,1.4,0,2.5.1,3.3,0,.9.1,1.6.2,2-4.4,0-7.8-1-10.1-2.9-2.3-1.9-3.4-5.1-3.4-9.5l.6-63.9.4-.2c.4,0,.9-.2,1.5-.3.5,0,1-.1,1.7-.2.6,0,1.3,0,2.1,0,2.3,0,4.4.3,6.4.9,2,.6,3.8,1.6,5.6,3,1.7,1.4,3.3,3.2,4.8,5.6,1.5,2.3,2.8,5.3,4.1,8.7,0,.3.3.9.6,1.8.3.9.7,2,1.1,3.2.4,1.3.9,2.6,1.3,4.1.5,1.5,1,3,1.5,4.6,1.2,3.6,2.4,7.5,3.8,11.9l8.7-25.5c1.3-3.5,2.7-6.4,4.2-8.7,1.5-2.3,3.2-4.2,4.9-5.5,1.8-1.4,3.6-2.3,5.6-2.9,2-.6,4.1-.9,6.4-.8Z"/>
        <g class="cls-56">
          <g class="cls-33">
            <g class="cls-56">
              <path class="cls-4" d="M301.6,165.9l1.7,1.8c-4.3,0-7.7-1-10-2.9-.2-.2-.4-.4-.6-.6l-1.7-1.8c.2.2.4.4.6.6,2.3,1.9,5.7,2.9,10,2.9"/>
            </g>
          </g>
        </g>
      </g>
      <g class="cls-56">
        <g class="cls-56">
          <g class="cls-35">
            <g class="cls-56">
              <path class="cls-4" d="M344.5,102.8l1.7,1.8c-1.2,2.9-2.4,6-3.6,9.3-1.1,2.8-2.3,6-3.6,9.5-1.3,3.5-2.7,7.1-4.2,10.8l-1.7-1.8c1.5-3.7,2.9-7.3,4.2-10.8,1.3-3.5,2.5-6.7,3.6-9.5,1.2-3.2,2.4-6.3,3.6-9.3"/>
            </g>
          </g>
        </g>
        <g class="cls-56">
          <g class="cls-43">
            <g class="cls-56">
              <path class="cls-4" d="M313.5,166.3l1.7,1.8c-.5,0-1.1,0-1.6,0-1.4,0-2.9-.2-4.5-.7l-1.7-1.8c1.5.4,3,.7,4.5.7.5,0,1.1,0,1.6,0"/>
            </g>
          </g>
        </g>
        <g class="cls-56">
          <g class="cls-45">
            <g class="cls-56">
              <path class="cls-4" d="M329,143.3l1.7,1.8c-1.6,4.1-3,7.6-4.2,10.6-1.2,3-2,5-2.4,6.1-1,2.4-2.4,4-4,4.8-1.6.9-3.3,1.4-4.9,1.5l-1.7-1.8c1.6-.1,3.3-.6,4.9-1.5,1.6-.9,3-2.5,4-4.8.4-1,1.2-3.1,2.4-6.1,1.2-3,2.5-6.6,4.2-10.6"/>
            </g>
          </g>
        </g>
        <polygon class="cls-12" points="359.3 143.5 361 145.3 330.7 145 329 143.3 359.3 143.5"/>
        <g class="cls-56">
          <g class="cls-42">
            <g class="cls-56">
              <path class="cls-4" d="M374.3,166.9l1.7,1.8c-1.6-.2-3.3-.7-4.9-1.6-.6-.3-1.1-.7-1.6-1.2l-1.7-1.8c.5.5,1,.9,1.6,1.2,1.7.9,3.3,1.4,4.9,1.6"/>
            </g>
          </g>
        </g>
        <g class="cls-56">
          <g class="cls-41">
            <g class="cls-56">
              <path class="cls-4" d="M350.4,90.4l1.7,1.8c.6.6,1.1,1.2,1.7,2,.9,1.2,1.7,2.9,2.5,5,.5,1.3,1.3,3.6,2.5,6.8,1.2,3.2,2.6,7,4.2,11.2,1.6,4.2,3.3,8.7,5,13.4,1.8,4.7,3.5,9.1,5,13.4,1.6,4.2,3,8,4.2,11.2,1.2,3.3,2.1,5.6,2.5,6.9.3.7.6,1.4.8,2.1.3.7.5,1.3.7,1.9l-1.7-1.8c-.2-.6-.5-1.2-.7-1.9-.3-.7-.6-1.4-.8-2.1-.5-1.3-1.3-3.6-2.5-6.9-1.2-3.3-2.6-7-4.2-11.2-1.6-4.2-3.3-8.7-5-13.4-1.8-4.7-3.4-9.1-5-13.4-1.6-4.2-3-8-4.2-11.2-1.2-3.2-2.1-5.5-2.6-6.8-.8-2.1-1.6-3.7-2.5-5-.6-.8-1.1-1.5-1.7-2"/>
            </g>
          </g>
        </g>
        <g class="cls-56">
          <g class="cls-36">
            <g class="cls-56">
              <path class="cls-4" d="M379.7,164.4l1.7,1.8c.3.7.5,1.3.7,2l-1.7-1.8c-.2-.7-.5-1.3-.7-2"/>
            </g>
          </g>
        </g>
        <path class="cls-1" d="M379.7,164.4c.3.7.5,1.3.7,2-1.6.4-3.1.6-4.5.6-.5,0-1.1,0-1.6-.1-1.6-.2-3.3-.7-4.9-1.6-1.7-.9-2.9-2.5-3.8-4.9-.4-1-1.2-3.1-2.3-6.1-1.1-3-2.4-6.6-4-10.7l-30.3-.3c-1.6,4.1-3,7.6-4.2,10.6-1.2,3-2,5-2.4,6.1-1,2.4-2.4,4-4,4.8-1.6.9-3.3,1.4-4.9,1.5-.5,0-1.1,0-1.6,0-1.4,0-2.9-.2-4.5-.7.2-.7.5-1.3.8-2,.2-.6.5-1.2.7-1.9.3-.7.6-1.4.9-2.1.5-1.3,1.4-3.6,2.7-6.9,1.3-3.2,2.7-7,4.4-11.2,1.7-4.2,3.4-8.6,5.3-13.3,1.9-4.6,3.6-9.1,5.3-13.3,1.6-4.2,3.1-7.9,4.4-11.1,1.3-3.2,2.2-5.5,2.7-6.8.8-2.1,1.6-3.7,2.5-4.9.9-1.2,1.8-2.2,2.6-2.8s1.7-1.1,2.5-1.3c.8-.2,1.6-.3,2.3-.2.7,0,1.5.1,2.3.3.8.2,1.6.6,2.5,1.3.8.7,1.7,1.6,2.6,2.9.9,1.2,1.7,2.9,2.5,5,.5,1.3,1.3,3.6,2.6,6.8,1.2,3.2,2.6,7,4.2,11.2,1.6,4.2,3.3,8.7,5,13.4,1.8,4.7,3.5,9.1,5,13.4,1.6,4.2,3,8,4.2,11.2,1.2,3.3,2.1,5.6,2.5,6.9.3.7.6,1.4.8,2.1.3.7.5,1.3.7,1.9ZM333.1,132.3l22.2.2c-1.4-3.7-2.7-7.3-4.1-10.9-1.3-3.5-2.5-6.7-3.4-9.5-1.2-3.3-2.3-6.4-3.3-9.3-1.2,2.9-2.4,6-3.6,9.3-1.1,2.8-2.3,6-3.6,9.5-1.3,3.5-2.7,7.1-4.2,10.8"/>
        <g class="cls-56">
          <g class="cls-37">
            <g class="cls-56">
              <path class="cls-4" d="M380.4,166.4l1.7,1.8c-1.6.4-3.1.6-4.5.6-.5,0-1.1,0-1.6-.1l-1.7-1.8c.5,0,1.1.1,1.6.1,1.4,0,2.9-.2,4.5-.6"/>
            </g>
          </g>
        </g>
      </g>
      <g class="cls-56">
        <g class="cls-56">
          <g class="cls-38">
            <g class="cls-56">
              <path class="cls-4" d="M436.9,95.3l1.7,1.8c1,1,1.7,1.8,2,2.4l-1.7-1.8c-.4-.6-1-1.4-2-2.4"/>
            </g>
          </g>
        </g>
        <g class="cls-56">
          <g class="cls-39">
            <g class="cls-56">
              <path class="cls-4" d="M438.9,97.7l1.7,1.8c-.2.4-.5.8-.8,1.2l-1.7-1.8c.3-.4.5-.8.8-1.2"/>
            </g>
          </g>
        </g>
        <g class="cls-56">
          <g class="cls-44">
            <g class="cls-56">
              <path class="cls-4" d="M438.1,98.9l1.7,1.8c-.2.4-.5.7-.8,1.1-.3.3-.7.6-1,.7l-1.7-1.8c.4-.1.7-.4,1-.7.3-.3.6-.7.8-1.1"/>
            </g>
          </g>
        </g>
        <g class="cls-56">
          <g class="cls-40">
            <g class="cls-56">
              <path class="cls-4" d="M436.3,100.7l1.7,1.8c-.8.5-1.7.8-2.7.8-1,0-1.9-.2-2.8-.5-.9-.3-1.8-.7-2.8-1.1-1-.4-2.3-.7-3.7-1.1-1.4-.3-3.2-.5-5.3-.5-2.8,0-5.5.5-8.2,1.7-2.7,1.2-5.1,3-7.3,5.4-2.2,2.4-3.9,5.5-5.2,9.3-1.3,3.8-2,8.3-2.1,13.5,0,5.3.5,9.8,1.8,13.6,1.2,3.8,2.9,6.9,5,9.4.4.5.8.9,1.2,1.4l-1.7-1.8c-.4-.4-.8-.9-1.2-1.4-2.1-2.5-3.8-5.6-5-9.4-1.2-3.8-1.8-8.3-1.8-13.6,0-5.2.7-9.7,2.1-13.5,1.3-3.8,3.1-6.9,5.2-9.3,2.2-2.4,4.6-4.2,7.3-5.4,2.7-1.2,5.4-1.7,8.2-1.7,2.1,0,3.9.2,5.3.5,1.4.3,2.6.7,3.7,1.1,1,.4,2,.7,2.8,1.1.9.3,1.8.5,2.8.5,1,0,1.9-.2,2.7-.8"/>
            </g>
          </g>
        </g>
        <g class="cls-56">
          <g class="cls-29">
            <g class="cls-56">
              <path class="cls-4" d="M436.8,157.2l1.7,1.8c.3.3.5.6.7.9l-1.7-1.8c-.2-.3-.4-.6-.7-.9"/>
            </g>
          </g>
        </g>
        <g class="cls-56">
          <g class="cls-31">
            <g class="cls-56">
              <path class="cls-4" d="M437.6,158.1l1.7,1.8c.3.4.5.8.7,1.2l-1.7-1.8c-.2-.4-.5-.8-.7-1.2"/>
            </g>
          </g>
        </g>
        <g class="cls-56">
          <g class="cls-30">
            <g class="cls-56">
              <path class="cls-4" d="M438.3,159.3l1.7,1.8c-.4.7-1,1.5-2.1,2.5-1,1-2.3,1.9-4,2.9-1.7.9-3.7,1.7-5.9,2.4-2.3.7-4.9,1-7.9,1-4.7,0-9.2-.9-13.6-2.7-4.4-1.7-8.3-4.3-11.6-7.6,0,0,0,0-.1-.1l-1.7-1.8s0,0,.1.1c3.3,3.4,7.2,5.9,11.6,7.6,4.4,1.7,8.9,2.6,13.6,2.7,3,0,5.6-.3,7.9-1s4.3-1.5,5.9-2.4c1.7-.9,3-1.9,4-2.9,1-1,1.7-1.8,2.1-2.5"/>
            </g>
          </g>
        </g>
        <path class="cls-1" d="M419.2,88.7c3,0,5.6.4,7.9,1.1,2.3.7,4.2,1.6,5.9,2.5,1.7,1,3,2,4,3,1,1,1.7,1.8,2,2.4-.2.4-.5.8-.8,1.2-.2.4-.5.7-.8,1.1-.3.3-.7.6-1,.7-.8.5-1.7.8-2.7.8-1,0-1.9-.2-2.8-.5-.9-.3-1.8-.7-2.8-1.1-1-.4-2.3-.7-3.7-1.1-1.4-.3-3.2-.5-5.3-.5-2.8,0-5.5.5-8.2,1.7-2.7,1.2-5.1,3-7.3,5.4-2.2,2.4-3.9,5.5-5.2,9.3-1.3,3.8-2,8.3-2.1,13.5,0,5.3.5,9.8,1.8,13.6,1.2,3.8,2.9,6.9,5,9.4,2.1,2.5,4.5,4.3,7.2,5.6,2.7,1.2,5.4,1.8,8.1,1.8,2.1,0,3.9-.1,5.3-.4,1.4-.3,2.7-.7,3.7-1,1-.4,2-.7,2.8-1,.9-.3,1.8-.5,2.8-.5,1,0,1.9.3,2.7.8.8.6,1.4,1.2,1.8,1.8.3.4.5.8.7,1.2-.4.7-1,1.5-2.1,2.5-1,1-2.3,1.9-4,2.9-1.7.9-3.7,1.7-5.9,2.4s-4.9,1-7.9,1c-4.7,0-9.2-.9-13.6-2.7-4.4-1.7-8.3-4.3-11.6-7.6-3.3-3.4-6-7.5-8-12.5-2-5-3-10.7-2.9-17.2,0-6.5,1.1-12.2,3.3-17.2,2.1-4.9,4.9-9.1,8.3-12.4,3.4-3.3,7.3-5.8,11.8-7.4,4.4-1.6,9-2.4,13.7-2.4Z"/>
      </g>
    </g>
  </g>
</svg>